<?xml version="1.0" encoding="utf-8"?>
<!-- Generator: Adobe Illustrator 18.0.0, SVG Export Plug-In . SVG Version: 6.00 Build 0)  -->
<!DOCTYPE svg PUBLIC "-//W3C//DTD SVG 1.1//EN" "http://www.w3.org/Graphics/SVG/1.1/DTD/svg11.dtd">
<svg version="1.1" id="Layer_1" xmlns="http://www.w3.org/2000/svg" xmlns:xlink="http://www.w3.org/1999/xlink" x="0px" y="0px"
	 width="299.7px" height="224px" viewBox="0 0 299.7 224" enable-background="new 0 0 299.7 224" xml:space="preserve">
<g>
	<circle fill="#FFFFFF" stroke="#00B9F1" stroke-miterlimit="10" cx="149.9" cy="112" r="111.5"/>
	<path fill="#2980B9" d="M37.2,150.6c2.3-1.1,4.7-2.1,7-3.1c-1.8-5.4-3.2-11-4.2-16.7c-14.6,2.7-34,12.3-39.9,6.4l19.7,48
		c3.3,3.3,10.8,1.8,19.2-0.6l-10.6-25.8C27.6,156.6,30.5,153.7,37.2,150.6z"/>
	<path fill="#1E477A" d="M37.2,150.6c-6.7,3.1-9.6,6.1-8.8,8.2c0.8,2.1,5.2,3.4,12.9,3.2c2.2-0.1,5-0.5,8.2-1.3
		c-2.1-4.2-3.9-8.6-5.4-13.2C41.9,148.5,39.5,149.5,37.2,150.6z"/>
	<path fill="#2980B9" d="M259.8,130.8c-1,5.7-2.4,11.3-4.2,16.7c2.3,1,4.6,2,7,3.1c6.7,3.1,9.6,6.1,8.8,8.2l-10.6,25.8
		c8.5,2.5,15.9,4,19.2,0.6l19.8-48C293.8,143.1,274.4,133.5,259.8,130.8z"/>
	<path fill="#1E477A" d="M258.4,161.9c7.7,0.3,12.1-1,12.9-3.2c0.8-2.1-2.1-5.1-8.8-8.2c-2.3-1.1-4.7-2.1-7-3.1
		c-1.5,4.5-3.3,8.9-5.4,13.1C253.4,161.4,256.1,161.9,258.4,161.9z"/>
	<path fill="#00B9F1" d="M258.4,161.9c-2.3-0.1-5-0.6-8.2-1.3c-16.2-3.8-45.1-14.7-99.5-14.7c-52.5,0-84.2,11-101.2,14.7
		c-3.3,0.7-6,1.2-8.2,1.3c-7.7,0.3-12.1-1-12.9-3.2L39,184.5l9.2,22.3c0.8,2.1,5.2,3.4,12.9,3.2c5.9-0.2,15.6-2.3,27.8-4.6
		c16.6-3.2,38.1-6.8,61.8-6.8c23.6,0,44.3,3.5,60.4,6.7c12.2,2.4,21.7,4.5,27.7,4.7c7.7,0.3,12.1-1,12.9-3.2l9.2-22.3l10.6-25.8
		C270.6,160.9,266.2,162.2,258.4,161.9z"/>
</g>
</svg>
