<?xml version="1.0" encoding="utf-8"?>
<!-- Generator: Adobe Illustrator 18.0.0, SVG Export Plug-In . SVG Version: 6.00 Build 0)  -->
<!DOCTYPE svg PUBLIC "-//W3C//DTD SVG 1.1//EN" "http://www.w3.org/Graphics/SVG/1.1/DTD/svg11.dtd">
<svg version="1.1" id="Layer_1" xmlns="http://www.w3.org/2000/svg" xmlns:xlink="http://www.w3.org/1999/xlink" x="0px" y="0px"
	 width="235.4px" height="100.2px" viewBox="0 0 235.4 100.2" enable-background="new 0 0 235.4 100.2" xml:space="preserve">
<g>
	<g>
		<path fill="#00B9F1" d="M0.1,99.5v-4.1h12c2.8,0,4.7-0.3,5.8-0.9c1.6-0.9,2.4-2.3,2.4-4.1c0-2.2-1.5-3.9-4.4-5.2l-9.6-4.2
			c-2.1-0.9-3.7-2-4.7-3.2c-1.1-1.4-1.7-3.1-1.7-5c0-3.2,1.3-5.5,3.8-7c1.9-1.2,4.6-1.7,8.1-1.7h11.7V68H13.3c-2,0-3.3,0.1-4.1,0.2
			c-1.4,0.3-2.4,0.9-3.1,1.8c-0.6,0.8-0.8,1.7-0.8,2.7c0,1.3,0.4,2.3,1.3,3c0.6,0.6,1.5,1.1,2.7,1.6l10.1,4.3
			c4.1,1.8,6.2,4.6,6.2,8.6c0,3.4-1.4,5.9-4.1,7.6c-1.9,1.1-4.5,1.7-7.9,1.7H0.1z"/>
		<path fill="#00B9F1" d="M49.3,95.4v4.1h-7c-4.4,0-7.6-0.9-9.7-2.8c-1.4-1.3-2.4-3.1-2.8-5.2c-0.3-1.2-0.4-2.6-0.4-4.2V63.9h5.1
			v22.4c0,3.5,0.8,6,2.5,7.4c1,0.8,2.4,1.4,4.1,1.5c0.6,0.1,1.6,0.1,3,0.1H49.3z"/>
		<path fill="#00B9F1" d="M70.4,95.4v4.1H66c-6,0-10.9-1.8-14.5-5.4c-3.5-3.5-5.3-7.6-5.3-12.3c0-5.5,2.3-10,6.8-13.6
			c3.6-2.8,7.9-4.2,13-4.2h4.4V68h-2.5c-5.7,0-10.1,1.6-13,4.9c-1.2,1.4-2.1,2.9-2.7,4.8c-0.1,0.4-0.2,0.9-0.3,1.6h18.5v4.1H51.9
			c0.1,2.4,1.1,4.7,2.9,7c2.9,3.4,7.1,5.1,12.5,4.9H70.4z"/>
		<path fill="#00B9F1" d="M97.2,95.4v4.1h-4.5c-6,0-10.9-1.8-14.5-5.4c-3.5-3.5-5.3-7.6-5.3-12.3c0-5.5,2.3-10,6.8-13.6
			c3.6-2.8,7.9-4.2,13-4.2h4.4V68h-2.5c-5.7,0-10.1,1.6-13,4.9c-1.2,1.4-2.1,2.9-2.7,4.8c-0.1,0.4-0.2,0.9-0.3,1.6h18.5v4.1H78.7
			c0.1,2.4,1.1,4.7,2.9,7c2.9,3.4,7.1,5.1,12.5,4.9H97.2z"/>
		<path fill="#00B9F1" d="M107.4,99.5h-5.1V76.6c0-2.5,0.3-4.5,0.9-6c0.9-2.4,2.5-4.2,4.7-5.6c2.2-1.3,4.6-1.9,7.2-1.9
			c3.7,0,6.8,1.1,9.3,3.4c2.4,2.2,3.6,4.9,3.6,8.2c0,3.4-1.2,6.2-3.7,8.4c-2.2,2-5.1,2.9-8.7,2.9h-6.2v-4.1h5.5c2.7,0,4.6-0.8,6-2.3
			c1.2-1.4,1.9-3,1.9-5c0-2-0.7-3.7-2.1-5.1c-1.4-1.4-3.3-2.2-5.7-2.2c-2,0-3.6,0.6-5,1.8c-1.8,1.6-2.7,3.9-2.7,7.1V99.5z"/>
		<path fill="#00B9F1" d="M149.2,63.2c2.4,0,4.7,0.5,7,1.4c2.2,0.9,4.2,2.2,6,3.9c1.8,1.7,3.2,3.8,4.1,6.1c1,2.3,1.5,4.7,1.5,7.1
			c0,2.4-0.5,4.7-1.4,7c-1,2.3-2.3,4.3-4,6.1c-3.6,3.7-8.1,5.5-13.3,5.5c-5.2,0-9.6-1.8-13.3-5.4c-1.8-1.7-3.1-3.7-4.1-6
			c-1-2.3-1.5-4.6-1.5-7.1c0-3.5,0.9-6.7,2.7-9.7c1.8-2.9,4.3-5.2,7.5-6.8C143,63.9,145.9,63.2,149.2,63.2 M148.8,67.5
			c-3.7,0-6.9,1.3-9.6,4c-2.8,2.7-4.2,6.1-4.2,10.1c0,4,1.4,7.3,4.1,10.1c2.7,2.7,6,4.1,9.8,4.1c3.8,0,7-1.4,9.7-4.1
			c1.3-1.3,2.3-2.9,3-4.7c0.7-1.8,1.1-3.6,1.1-5.4c0-1.9-0.4-3.7-1.1-5.5c-0.7-1.8-1.8-3.3-3.1-4.7
			C155.9,68.9,152.7,67.5,148.8,67.5"/>
		<path fill="#00B9F1" d="M211.6,63.9h5.1v23.4c0,2.6-0.2,4.6-0.7,5.8c-0.9,2.4-2.5,4.2-4.7,5.4c-2,1.1-4.3,1.7-6.9,1.7
			c-2.9,0-5.3-0.7-7.3-2.1c-1.2-0.9-2.3-2.1-3.2-3.8c-1,1.7-2.1,3-3.2,3.8c-1.9,1.4-4.2,2.1-6.9,2.1c-3.7,0-6.8-1.2-9.2-3.5
			c-2-2-3-4.7-3-8V63.9h5.1v23.7c0,2.8,0.6,4.9,1.8,6.2c1.4,1.4,3.2,2.2,5.4,2.2c2.5,0,4.5-0.9,6-2.8c1-1.3,1.5-3.2,1.5-5.6V63.9
			h5.1v23.6c0,1.7,0.2,2.9,0.5,3.8c0.6,1.5,1.6,2.6,3,3.5c1.2,0.7,2.5,1.1,4.1,1.1c2.8,0,4.9-1,6.3-3c0.8-1.1,1.2-3,1.2-5.7V63.9z"
			/>
		<path fill="#FFFFFF" d="M60.3,35.3c-8.2,0-17.9-0.1-22.6,0.6c-0.9,0.1-1.6,0.5-2.1,0.7c-2.1,0.7-6.2,6.5-7.9,9.6
			c-1.3,2.4-2.3,5.7-2.3,5.7s8.3,1.8,11.6,1.9C40.4,54,56.3,53,56.3,53s4.8,0.4,5,0.5c0.1,0.1,9.8-1.9,9.8-3c-0.1-4.3-2.9-5.7-4-7.8
			C66,40.7,70.2,35.3,60.3,35.3"/>
		<path fill="#F7941E" d="M60.3,35.3c-5.2-0.3-8.8-0.5-15-0.4c-1.7,0.2-5.1-0.2-9.3,1c-4.1,2-6.5,6.5-8.9,10.5
			c-0.5,1.1-1,2.1-1.4,3.2l-0.6,1.6l-0.1,0.4L25,51.8c0.7,1.2,0.3,0.4,0.5,0.6l0.8,0.2c2.1,0.4,4,0.8,5.6,1c3.2,0.6,5.4,0.7,5.4,0.6
			c0,0.1,8.5-0.2,17.8-0.8c2.3-0.3,4.5,0.5,7.1,0.2c2.3-0.5,4.5-1,6.5-1.6c1-0.5,1.9-0.2,2.9-1.7c-0.1-1-0.2-1.9-0.5-2.7
			c-0.6-1.6-1.5-2.6-2-3.3c-1-1.3-2-2.1-1.7-3.3c0.1-1.2,0.4-2.6-0.3-3.8C65.5,35.1,62.8,35.3,60.3,35.3c2.5,0.2,5.1,0.4,6.1,2.3
			c0.4,0.9,0.2,2.1,0,3.4c-0.4,1.5,0.9,2.9,1.9,4c0.5,0.6,1.3,1.6,1.8,3c0.3,0.7,0.2,1.5,0.6,2.4c-0.5,0-1.5,0.7-2.4,0.9
			c-1.9,0.6-4.1,1.1-6.4,1.6c-2.1,0.2-4.5-0.5-6.9-0.3c-9.3,0.6-17.8,0.9-17.7,0.8c0,0-2.1-0.1-5.3-0.6c-1.6-0.3-3.5-0.6-5.6-1
			l-0.8-0.2c0.1,0.2-0.5-0.6,0.2,0.5l0.1-0.2l0.1-0.4l0.6-1.5c0.4-1,0.8-2.1,1.4-3.1c2.2-3.8,4.9-8.5,8.4-10.1
			c3.8-1.1,7.4-0.8,9-0.9C51.5,35.7,55.1,35.7,60.3,35.3"/>
		<path fill="#9AA4AB" d="M76,43.6c0.2-4.2,1.6-8,4.1-10.9c-7.1,0.4-8.8,3-8.7,3.4c-3.5,4.4,0.6,8.7,0.6,8.7s1.5,0.7,4,1.3
			C76,45.3,76,44.4,76,43.6"/>
		<path fill="#9AA4AB" d="M139.2,53.9c0.5,0,0.9-0.1,1.4-0.1c0.1,0,0.2,0,0.3,0c-1-4.6-5.3-8.5-8.6-11.3c-6.9-5.8-14.7-10.4-23-13.8
			c-13.9-5.8-32.8-3.2-34.1,14.9c-0.2,3.4,0.1,6.9,1.2,10c0.5-0.4,1-0.8,1.6-1.1c-0.8-2.3-1.1-4.9-1.1-7.6c0-8.2,4.8-14.6,12.7-16.8
			c7-2,13.9,0.1,20.3,2.8c6.8,2.8,13.2,6.7,19,11.1C132.4,44.6,138.1,49,139.2,53.9"/>
	</g>
	<g>
		<defs>
			<path id="SVGID_4_" d="M58.3,46.2c0,1,0.8,1.8,1.9,1.9c1.1,0.1,2-0.7,2-1.7c0-1-0.8-1.8-1.9-1.9c0,0-0.1,0-0.1,0
				C59.2,44.6,58.3,45.3,58.3,46.2"/>
		</defs>
		<clipPath id="SVGID_1_">
			<use xlink:href="#SVGID_4_"  overflow="visible"/>
		</clipPath>
		
			<radialGradient id="SVGID_3_" cx="-1037.7251" cy="1070.9515" r="0.4829" gradientTransform="matrix(9.683230e-002 -3.8219 3.9415 0.168 -4060.2742 -4099.5874)" gradientUnits="userSpaceOnUse">
			<stop  offset="0" style="stop-color:#FCCD98"/>
			<stop  offset="0.6144" style="stop-color:#FCCB96"/>
			<stop  offset="0.8426" style="stop-color:#FCC490"/>
			<stop  offset="1" style="stop-color:#FBB986"/>
		</radialGradient>
		<polygon clip-path="url(#SVGID_1_)" fill="url(#SVGID_3_)" points="62.2,48.3 62.3,44.6 58.2,44.4 58.2,48.1 		"/>
	</g>
	<g>
		<path fill="#FFFFFF" d="M68.4,20.1c0.9,0.5,1.3,1.7,0.8,2.5c-0.5,0.8-1.7,1.1-2.6,0.5c-0.9-0.5-1.3-1.7-0.8-2.5
			C66.3,19.7,67.5,19.5,68.4,20.1"/>
		<path fill="#FFFFFF" d="M44.5,28.2c1.4-4.7,3.4-7.7,6.1-9.1c3.7-1.9,8.4-0.4,12.9,1c0.6,0.2,1.2,0.4,1.8,0.6
			c8.4,2.5,11.3,9.6,9.3,16.4c-2,6.8-8.3,11.2-16.7,8.7c-0.6-0.2-1.2-0.3-1.8-0.5c-4.5-1.3-9.2-2.6-11.3-6.1
			C43.2,36.6,43.1,33,44.5,28.2"/>
	</g>
	<g>
		<defs>
			<path id="SVGID_2_" d="M50.6,19.2c-2.7,1.4-4.7,4.4-6.1,9.1c-1.4,4.7-1.3,8.3,0.2,10.9c2.1,3.6,6.8,4.9,11.3,6.1
				c0.6,0.2,1.2,0.3,1.8,0.5c8.4,2.4,14.7-2,16.7-8.7c2-6.8-0.9-13.9-9.3-16.4c-0.6-0.2-1.2-0.4-1.8-0.6c-3-0.9-6-1.9-8.8-1.9
				C53.2,18.3,51.8,18.5,50.6,19.2"/>
		</defs>
		<clipPath id="SVGID_5_">
			<use xlink:href="#SVGID_2_"  overflow="visible"/>
		</clipPath>
		<path clip-path="url(#SVGID_5_)" fill="#FFFFFF" d="M60.7,28c2.8-0.1,5.1,2,5.2,4.8c0.1,2.7-2,5.1-4.8,5.2c-2.8,0.1-5.1-2-5.2-4.8
			C55.8,30.4,57.9,28.1,60.7,28"/>
	</g>
	<path fill="#9AA4AB" d="M58.1,16.8l0.6-1.1c-3.3-1-6.5,0.4-6.5,0.4l0.2-1.7C47,15.7,45,21.3,45,21.3l-0.5-1.5
		C40.3,24.5,41,30.5,41,30.5l-1.2-1.3c-1.2,6.4,2.6,10.2,2.6,10.2L41.2,40c2.7,2.8,6.7,3.9,6.7,3.9L47,44.7c7.9,3.1,13,1.9,13,1.9
		s-0.6-1.1-2.3-1.7c-0.7-0.3-1.9-0.3-3.3-0.6c-1.8-0.5-4-1.5-5.9-4c0,0,3.4-3.6,5-9.3c1.6-5.7,0.7-10.6,0.7-10.6
		c3.2-1.1,5.7-0.7,7.6-0.2c1.2,0.4,2.1,0.9,2.7,1c1.7,0.3,2.8-0.1,2.8-0.1C64.1,18.1,59,17,58.1,16.8"/>
	<path fill="#9AA4AB" d="M65.6,23.7c0.4,0.4,0.3,1.5-0.1,2.7c-0.5,1.4-1.3,2.4-1.8,2.2c0,0.1,0.1,0.1,0.1,0.1c0.5,0.2,1.5,0,2.2-2.1
		C66.8,24.6,66.1,23.9,65.6,23.7"/>
	<path fill="#9AA4AB" d="M61.7,36.3c0.4,0.4,0.3,1.5-0.1,2.7c-0.5,1.4-1.3,2.4-1.8,2.2c0,0.1,0.1,0.1,0.1,0.1c0.5,0.2,1.5,0,2.2-2.1
		C62.9,37.2,62.3,36.5,61.7,36.3"/>
	<path fill="#9AA4AB" d="M70.8,33.3c0.3,0,0.5,1.4,0.1,2.9c-0.4,1.5-1.6,2.5-1.5,2.2c0.2-0.6,0.6-1,1-2.4
		C70.7,34.7,70.7,34.3,70.8,33.3"/>
	<path fill="#A5AFB5" d="M72.8,27.8c0-0.2,0.1-0.5,0.2-0.7l1.3-2.1c0,0,0-0.1,0.1-0.1c0-0.1-0.1-0.1-0.3-0.1l-1,0.1
		c-0.2,0-0.4-0.1-0.5-0.4l0-0.2c0-0.2,0.1-0.4,0.4-0.5l2.6-0.3c0.2,0,0.4,0.1,0.5,0.3c0,0.2-0.1,0.5-0.2,0.7l-1.3,2.2
		c0,0,0,0.1-0.1,0.1c0,0.1,0.1,0.1,0.4,0l1.1-0.1c0.2,0,0.4,0.1,0.5,0.4l0,0.2c0,0.2-0.1,0.4-0.4,0.5l-2.8,0.3
		C73.1,28.2,72.9,28,72.8,27.8"/>
	<path fill="#A5AFB5" d="M70.9,18.3c0.1-0.3,0.4-0.7,0.7-0.8l3-2c0.1,0,0.1-0.1,0.2-0.1c0.1-0.1-0.1-0.2-0.4-0.3L73,14.6
		c-0.3-0.1-0.5-0.4-0.4-0.8l0.1-0.3c0.1-0.3,0.4-0.5,0.8-0.4l3.5,1.2c0.3,0.1,0.5,0.4,0.4,0.7c-0.1,0.3-0.4,0.7-0.7,0.9l-3,2.1
		c0,0-0.1,0.1-0.1,0.1c-0.1,0,0.1,0.2,0.4,0.3l1.5,0.5c0.3,0.1,0.5,0.4,0.4,0.8l-0.1,0.3c-0.1,0.3-0.4,0.5-0.8,0.4L71.3,19
		C71,18.9,70.8,18.6,70.9,18.3"/>
	<path fill="#FFFFFF" d="M27.7,57.5c-3.7-0.9-2.6-5.6-2.6-5.6s0.6-2.4,1.6-3.9c0.9-1.3,2.3-2.1,3.3-2.3c6.2-1,11.5,1.2,18.3,0.9
		c8.1-0.3,11.3-1.5,15.3-2.5c3.8-0.9,12.6-3.1,14.7,1.6c1.8,4.1-0.1,9.3-2.7,10.9c-2,1.3-9.4,1-14.6,1.1
		C52.8,57.7,30.3,58.2,27.7,57.5"/>
	<path fill="none" stroke="#F7941E" stroke-width="1.781" stroke-linecap="round" stroke-linejoin="round" d="M27.7,57.5
		c-3.7-0.9-2.6-5.6-2.6-5.6s0.6-2.4,1.6-3.9c0.9-1.3,2.3-2.1,3.3-2.3c6.2-1,11.5,1.2,18.3,0.9c8.1-0.3,11.3-1.5,15.3-2.5
		c3.8-0.9,12.6-3.1,14.7,1.6c1.8,4.1-0.1,9.3-2.7,10.9c-2,1.3-9.4,1-14.6,1.1C52.8,57.7,30.3,58.2,27.7,57.5z"/>
	<path fill="#FFFFFF" d="M74,52.8c0,0.4-0.4,0.8-0.8,0.8l-8.5,0c-0.4,0-0.8-0.3-0.8-0.8l0-5c0-0.4,0.4-0.8,0.8-0.8l8.5,0
		c0.4,0,0.8,0.3,0.8,0.8L74,52.8z"/>
	<path fill="none" stroke="#F7941E" stroke-width="0.95" d="M74,52.8c0,0.4-0.4,0.8-0.8,0.8l-8.5,0c-0.4,0-0.8-0.3-0.8-0.8l0-5
		c0-0.4,0.4-0.8,0.8-0.8l8.5,0c0.4,0,0.8,0.3,0.8,0.8L74,52.8z"/>
	<path fill="#F7941E" d="M67.3,50.5c0,0.5-0.4,0.9-0.9,0.9c-0.5,0-0.9-0.4-0.9-0.9c0-0.5,0.4-0.9,0.9-0.9
		C66.9,49.6,67.3,50,67.3,50.5"/>
	<path fill="#F7941E" d="M70,50.5c0,0.5-0.4,0.9-0.9,0.9c-0.5,0-0.9-0.4-0.9-0.9c0-0.5,0.4-0.9,0.9-0.9C69.6,49.6,70,50,70,50.5"/>
	<path fill="#F7941E" d="M72.7,50.5c0,0.5-0.4,0.9-0.9,0.9c-0.5,0-0.9-0.4-0.9-0.9c0-0.5,0.4-0.9,0.9-0.9
		C72.3,49.6,72.7,50,72.7,50.5"/>
	<path fill="#F7941E" d="M80.1,0.3c0.1,0,0.3-0.1,0.4-0.1c0.8,1,2,1.7,3.4,2.1c1.6,0.4,3,1.5,3.1,3c0.1,1.1,0.2,2.2-0.3,3.3
		c0-1.6-0.2-3.3-1.4-4.5c-0.7-0.8-2-1.1-3.2-0.8c0.9,2.7,2.3,5.3,3.3,8c0.4,1.5-1.3,3.3-3.2,3.6c-1,0.1-1.7-0.6-1.7-1.4
		c0.1-1.6,1.9-3.3,3.8-3.4C82.9,6.8,81.5,3.6,80.1,0.3"/>
	<path fill="none" stroke="#F7941E" stroke-width="0.476" stroke-linecap="round" stroke-linejoin="round" d="M80.1,0.3
		c0.1,0,0.3-0.1,0.4-0.1c0.8,1,2,1.7,3.4,2.1c1.6,0.4,3,1.5,3.1,3c0.1,1.1,0.2,2.2-0.3,3.3c0-1.6-0.2-3.3-1.4-4.5
		c-0.7-0.8-2-1.1-3.2-0.8c0.9,2.7,2.3,5.3,3.3,8c0.4,1.5-1.3,3.3-3.2,3.6c-1,0.1-1.7-0.6-1.7-1.4c0.1-1.6,1.9-3.3,3.8-3.4
		C82.9,6.8,81.5,3.6,80.1,0.3"/>
	<path fill="#00B9F1" d="M223.2,75.9v-6.5h-2.5v-1.1h6.3v1.1h-2.5v6.5H223.2z M227.8,75.9v-7.7h1.9l1.9,6.1l1.9-6.1h1.8v7.7h-1.2
		v-6.4l-2,6.4h-1.2l-2.1-6.5v6.5H227.8z"/>
</g>
</svg>
