<?xml version="1.0" encoding="utf-8"?>
<!-- Generator: Adobe Illustrator 18.0.0, SVG Export Plug-In . SVG Version: 6.00 Build 0)  -->
<!DOCTYPE svg PUBLIC "-//W3C//DTD SVG 1.1//EN" "http://www.w3.org/Graphics/SVG/1.1/DTD/svg11.dtd">
<svg version="1.1" id="Layer_1" xmlns="http://www.w3.org/2000/svg" xmlns:xlink="http://www.w3.org/1999/xlink" x="0px" y="0px"
	 width="42px" height="50px" viewBox="0 0 42 50" enable-background="new 0 0 42 50" xml:space="preserve">
<path fill="#00B9F1" d="M0,12.5L21,0l21,12.5v25L21,50L0,37.5V12.5z M7,20.6c5.4,15.1,18.1,18.2,20,18.3c4.7,0.5,7.7-2.4,8.3-6.9
	c0,0-4.7-3-7.1-3.5l-3.7,3.7c0,0-2,0.1-6.4-4.3c-4.4-4.4-4.3-6.4-4.3-6.4l3.2-3.2c-0.5-3.3-2.4-8.4-6.1-7.2
	C7.3,12.3,5.9,17.4,7,20.6z"/>
</svg>
