<svg version="1.1" xmlns="http://www.w3.org/2000/svg" xmlns:xlink="http://www.w3.org/1999/xlink" width="1172" height="210" viewBox="0 0 1172 210" style="display:none">
<defs>
<g id="icon-facebook">
	<path class="path1" d="M0 25l42.763-25 42.763 25v50l-42.763 25-42.763-25v-50zM46.053 81.25v-29.605h11.184l0.329-9.868h-11.513c0-13.158 0-5.263 0-7.566 0-2.961 0.658-4.605 4.605-4.605 3.289 0 6.579 0 6.579 0l0.329-9.539c0 0-2.632-0.329-6.908-0.329-10.197 0-14.474 6.25-14.474 13.158 0 4.605 0 8.882 0 8.882h-9.868v9.868h9.868v29.605h9.868z"></path>
</g>
<g id="icon-gift">
	<path class="path1" d="M70 30.571c1.714-1.143 3.429-2.571 5.143-4.286 3.429-3.429 5.429-7.429 6.286-11.429 0.857-4.571-0.286-8.571-3.143-11.429-2.286-2.286-5.143-3.429-8.571-3.429-4.857 0-10 2.286-14.286 6.571-6.571 6.571-10.286 15.714-12.571 22-1.429-6.571-4.571-15.143-10.571-21.143-2.857-3.143-7.143-4.857-10.857-4.857-3.143 0-6 1.143-8.286 3.429-4.857 4.857-4.286 13.429 1.429 19.143 2 2 4.571 3.714 6.857 5.143h-21.429v25.429h6.571v44.286h76v-44.286h6.286v-25.143h-18.857zM60.571 11.429c2.857-2.857 6.286-4.286 9.143-4.286 1.143 0 2.571 0.286 3.714 1.143 2.571 2.571 1.143 8.571-3.143 12.857s-10.286 7.429-15.143 9.429h-5.143c1.714-5.714 4.857-13.714 10.571-19.143zM16.857 14.857c0-0.857 0-2.571 1.143-3.714s2.286-1.143 3.429-1.143v0c2 0 4.286 0.857 6 2.857 3.429 3.429 6 8.571 8 15.429 0 0.286 0 0.286 0.286 0.571-0.286 0-0.286 0-0.571-0.286-6.857-2-12-4.571-15.429-8-1.714-2-2.571-4-2.857-5.714zM38 93.714h-25.143v-41.143h25.143v41.143zM38 49.429h-31.429v-12.571h31.429v12.571zM76 93.714h-25.429v-41.143h25.429v41.143zM82.286 49.429h-31.429v-12.571h31.714v12.571h-0.286z"></path>
</g>
<g id="icon-multi-band-benarul-beats">
	<path class="path1" d="M60.5 0c1.9 0 3.9 0 5.8 0 0.1 0.1 0.2 0.2 0.3 0.2 4.9 0.9 9.1 3.2 12.8 6.5 0.3 0.3 0.8 0.5 1.3 0.6 5.3 0.2 8.9 3.1 11.8 7.2 0.4 0.5 0.9 1 1.5 1.2 4.3 1.5 7.1 4.5 8.7 8.7 0.2 0.6 0.6 1.3 1.2 1.7 4.7 3.3 6.2 7.8 4.8 13.2-0.6 2.4 0.1 4.5 0.7 6.7 0 1.8 0 3.6 0 5.5-1.1 2.2-2.1 4.6-3.4 6.7-0.5 0.8-0.8 1.3-0.6 2.3 0.8 3.9 0.2 7.8-2.3 10.8-4.7 5.5-10.3 9.8-17.2 12.3-1.8 0.7-3.8 1.1-5.6 1.6 0.8 2.2 1.6 4.4 2.3 6.5 0.6 1.8 0.1 3.5-1.5 4.4-2.5 1.4-5.1 2.6-7.7 3.9-1.7 0-3.4 0-5.1 0-2-0.6-3.9-1.4-5-3.3-2.1-3.6-5.1-6.1-8.9-7.8-3.3-1.5-6-3.9-7.5-7.4-1.5-3.6-2.7-7.2-3.9-10.9-0.4-1.1-1-1.6-2-2-2.7-1-5.3-2.3-8-3.4-0.7-0.3-1.6-0.4-2.4-0.5-3-0.1-6.2 0.3-9-0.4-3-0.8-6-1.5-9.1-1.7-4.3-0.3-7.7-2.4-9.9-6.2-1.7-2.9-2-6.2-2-9.5 0-2-0.4-4-0.6-6 0-1.9 0-3.9 0-5.8 1-3.7 2.8-6.9 5.9-9.3 0.4-0.3 0.5-0.9 0.7-1.4 2-4.9 4.6-9.5 9.5-12 3.4-1.7 7-3.1 9.8-5.8 0.1-0.1 0.3-0.2 0.5-0.3 3.9-0.9 7.7-2 11.4-3.7 0.1 0 0.2 0 0.4 0 2.4-0.5 4.8-1.1 7.2-1.4 1.8-0.2 3.9-0.5 5.6 0 3.4 0.9 6.4-0.4 9.5-1.2zM6.2 39.2c2.4 0.6 4.5 1 6.4 1.7 1.8 0.7 2.2 1.9 1.6 3.1-0.6 1.3-1.7 1.4-3.4 0.7-1.2-0.5-2.4-0.6-4.1-1.1 0 1.9-0.1 3.3 0 4.6 0.3 6.4 3.6 9.2 10 8.5 0.4 0 0.7-0.2 1.1-0.1 0.7 0.1 1.5 0.1 2.1 0.5 3.3 2.2 6.9 2.1 10.6 1.6 0.1-0.4 0.3-0.8 0.3-1.2 0.5-3.4 2.6-5.2 5.7-6.1 1.2-0.4 2.1 0 2.6 1 0.5 1.1 0.2 2.1-0.9 2.8-0.6 0.3-1.2 0.5-1.8 0.8-1.8 1-2 3.1-0.3 4.1 1.3 0.8 2.6 1.5 4 2.1 3.4 1.4 7 1.9 10.5 1.4 0.1-0.2 0.2-0.3 0.2-0.3 0-0.5-0.1-1.1-0.1-1.6-0.4-4 0.9-7.3 4.3-9.6 1.1-0.8 2.2-1 3.1 0 1 1.1 0.7 2.2-0.3 3.2-0.5 0.5-1.1 1-1.6 1.5-1.1 1.1-1.7 6.1-0.9 7.3 0.2 0.2 0.5 0.4 0.7 0.5 4.2 2.1 7.8 1.6 11.3-1.7-1.3-2.1-1.9-4.4-1.1-6.9 0.4-1.3 1.1-2.2 2.6-1.9s1.7 1.4 1.6 2.8c-0.1 1.4 0.2 2.7 0.4 4.1 2.7-0.3 4.2-1.7 5.6-3.3 1.8-1.9 2.9-2.1 5.3-0.8 0.9 0.4 1.8 0.9 2.7 1.1 2.1 0.5 2.9-0.3 2.7-2.3-0.1-0.6-0.2-1.2-0.3-1.8-0.3-2.1 0.5-3.9 2.1-5.1 0.6-0.5 2.1-0.5 2.7 0 0.5 0.3 0.7 2 0.4 2.5-1.4 1.7-0.8 3.4-0.4 5.1 9.6 0.7 13.7-3 10.7-12.3-3-0.4-5.8-0.7-8.5-1.3-1.3-0.3-2.3-1.3-1.8-2.9 0.4-1.3 1.6-1.4 3.3-1.1 2 0.4 4 0.5 6.1 0.5 0.5 0 1.2-0.8 1.3-1.4 0.8-2.8 0.1-4.7-2.5-6.4-1.9-1.2-3.1-2.7-3.5-5-0.5-2.5-2.3-4-4.7-4.9-1.3-0.4-1.7 0-2.1 1.1-0.7 2.1 0.5 3.7 1.4 5.4 0.7 1.2 0.7 2.4-0.6 3.2-1.2 0.7-2.2 0.2-2.9-0.9-0.6-0.9-1.2-1.9-1.8-3-2.2 1.4-4.3 1.5-6.5 0.4-1.2-0.6-2-1.5-1.3-2.9 0.7-1.3 1.7-1.4 3.1-0.9 0.7 0.2 1.9 0.3 2.3-0.1 1.3-1.6 2.4-3.5 3.5-5.2 0.1-0.2 0-0.6-0.1-0.8-1.4-1.9-3.1-3.6-5.6-4.1-1.1-0.2-1.6-0.1-2.1 1-1.2 2.7-3.1 4.8-5.6 6.2-1.7 0.9-3.1 0.8-3.7-0.4-0.5-2 0.5-2.7 1.6-3.7 1.5-1.2 2.7-2.7 3.9-4.2 0.2-0.3 0.1-1.2-0.2-1.5-5.2-4.9-11.2-7-18.1-4-0.4 0.2-1 0.7-1 1 0.3 2.5 0.3 5 1.1 7.3 0.3 0.9 2.3 1.2 3.5 1.7 0.1 0 0.1 0 0.2 0.1 0.4 0.8 1.4 1.7 1.2 2.3-0.3 0.7-1.4 1.2-2.2 1.6-0.4 0.2-1-0.1-1.6-0.2-0.2 0.8-0.3 1.4-0.5 2-1 3.7-4.4 6.6-7.9 6.7-1.3 0.1-2.5-0.2-2.7-1.8s0.8-2.2 2.3-2.4c3.1-0.4 4.7-3 4.1-6.1-0.7-3.2-1.2-6.5-1.8-9.7-0.2-1 0.7-2.5-0.9-2.9-1.2-0.3-2.4-0.4-3.6-0.3-1 0.1-1.9 0.7-2.9 0.9-1.2 0.3-2.5 0.7-3.7 0.6-2.1-0.2-3.7 0.5-4.9 2 0.8 1.5 1.7 2.9 2.2 4.5 0.6 2.1 1.6 3 3.8 2.7 1.2-0.2 2.1 0.6 2.2 1.9s-0.7 2.2-1.9 2.1c-1.9 0-3.9-0.3-5.8-0.5-1 0.2-2.1 0.9-3.3 1.4s-2.3 0.3-2.9-1c-0.6-1.3 0.1-2.2 1.2-2.8 3.1-1.8 3.1-1.8 1.4-5-0.1-0.2-0.2-0.4-0.3-0.6-1.1-2-2-2.3-4-0.9-0.7 0.5-1.2 1.2-1.9 1.7-0.8 0.6-1.6 1.3-2.6 1.6-6.6 1.7-10.2 6.2-12.1 12.5 1.7 1.6 3.7 2.6 6.1 2.7 3.6 0.1 4.1-0.4 4.1-3.9 0-0.4 0-0.9 0-1.3 0-1.4 0.6-2.3 2-2.3 1.5 0 2.1 0.9 2.2 2.4 0 1 0 1.9 0 3 0.7-0.1 1.2-0.2 1.7-0.2 3.9-0.5 7.2 0.6 9.9 3.4 1.3 1.3 1.4 2.6 0.3 3.5-1.3 1-2.4 0.6-3.3-0.5-1.6-1.8-3.8-2.5-6.1-2.2-1.7 0.2-3.3 0.8-4.9 1.3-5.1 1.8-9.8 1.3-14.1-2-0.3-0.2-0.6-0.4-0.9-0.6-2.7 2.6-3 5.6-2.7 8.3zM48.7 69.7c1.5 3.7 2.7 7 4.3 10.1 0.8 1.5 2.4 2.8 4 3.5 4.7 2 8.3 5.2 11.1 9.4 0.3 0.4 0.8 0.9 1.2 1 2.5 0.3 4.9 0.1 7.1-1.8-2.1-3.9-2.9-8.4-6.1-11.7-0.8-0.9-1.4-2.2-1.7-3.4-0.6-2.2-0.9-4.5-1.3-7-4.8 3-9.6 2-14.5 0-1-0.4-2.3-0.1-4.1-0.1zM99.3 62c-2.7 0.1-5.3 0.2-7.8 0.4-0.5 0-1 0.2-1.4 0.4-3 1.6-6 1.8-9.1 0.4-0.4-0.2-1-0.3-1.3-0.1-1.7 1-3.4 2.1-5 3.2-0.3 0.2-0.5 0.7-0.6 1.1-0.8 2.9-0.6 5.7 0.8 8.3 1.3 2.5 3.4 3.7 6.2 3 7.4-1.9 13.2-6.3 17.9-12.1 1.1-1.5 0.9-3.1 0.3-4.6zM26.2 47.9c-1.6 1-3 1.8-4.3 2.7-1 0.7-2 1.4-2.9 2.2-1 0.9-2 1.3-3 0.4-1.1-0.9-1.1-2.2-0.2-3 1.3-1.3 2.8-2.5 4.4-3.4 1.8-0.9 2.8-2 2.8-4 0-1.3 0.3-2.5 1.9-2.7s2.2 0.9 2.6 2.2c1 3 2.2 3.4 4.8 1.7 1.2-0.7 2.2-1.7 3.3-2.5 1.1-0.9 2.2-1.2 3.2-0.1s0.7 2.3-0.4 3.2c-1.4 1.2-2.9 2.4-4.5 3.3-2.5 1.6-5.2 1.8-7.7 0zM63 42.1c-1.9 1.4-3.4 2.9-5.2 3.7-1.1 0.5-2.6 0.3-3.8 0-0.6-0.2-1.4-1.5-1.3-2.2s1.2-1.6 2-1.6c3.6-0.3 4.7-1.8 3.8-5.4-0.4-1.4-0.4-3-0.5-4.5-0.1-1.3 0.8-2 2.1-2s2 0.7 2.1 2.1c0 0.7 0.1 1.3 0.1 2 0.1 2.3 1.4 3.7 3.5 4.4 0.9 0.3 1.9 0.5 2.8 0.8 1.1 0.4 1.7 1.2 1.3 2.4s-1.3 1.7-2.4 1.5c-1.7-0.3-3.3-0.9-4.5-1.2zM83.1 43.3c1 0.3 1.8 0.5 2.7 0.7 1.2 0.3 1.7 1.2 1.6 2.3-0.2 1.2-1.1 1.8-2.4 1.8-0.5 0-1.2-0.1-1.6-0.3-2.2-1.3-3.8-0.4-5.4 1.1-0.3 0.3-0.8 0.6-1.2 0.8-1.1 0.6-2.2 0.5-2.9-0.6-0.8-1.1-0.4-2.1 0.5-2.9 1.2-1 2.5-1.9 3.6-3.1 1.5-1.6 1.5-2.9-0.2-4.3-0.9-0.8-1.9-1.4-2.8-2-1.1-0.7-1.5-1.7-0.9-2.8 0.6-1.2 1.8-1.5 3-0.8 4.8 2.7 6.7 5.1 6 10.1z"></path>
</g>
<g id="icon-neurosensoty-algorithems">
	<path class="path1" d="M13.143 73.714v26.286h-13.143v-93.286c0-1.714 0.571-3.286 1.857-4.714s2.857-2 4.714-2 3.429 0.714 4.714 2.143c1.286 1.429 1.857 3 1.857 4.714v53.857h151v39.286h-13.143v-26.286h-137.857zM33.857 33.714c3.286 0 6.143-1.143 8.714-3.571 2.429-2.286 3.714-5.143 3.714-8.429s-1.286-6.143-3.714-8.429c-2.571-2.429-5.429-3.714-8.714-3.714s-6.143 1.143-8.429 3.571c-2.286 2.286-3.571 5.143-3.571 8.429s1.143 6.143 3.571 8.429c2.286 2.429 5.143 3.714 8.429 3.714zM164.143 50.571v-16c0-2.571-0.857-4.714-2.714-6.286s-4.143-2.571-6.857-3l-95.714-9.286c-1.714 0-3.143 0.571-4.286 1.714s-1.714 2.571-1.714 4.286v18.571h-24.714c-4 0-6.143 1.714-6.143 5s2 5 6.143 5h136z"></path>
</g>
<g id="icon-pink-noise">
	<path class="path1" d="M50.25 50.050c0 20.28-9.69 38.362-24.675 49.85-0.5 0.4-1.199-0.2-0.799-0.799 8.791-13.087 14.286-30.27 14.286-49.051s-5.495-35.964-14.386-49.151c-0.4-0.5 0.3-1.199 0.799-0.799 15.085 11.588 24.775 29.57 24.775 49.95zM13.187 15.884c-0.5-0.4-1.199 0.2-0.799 0.799 5.894 8.991 9.391 20.679 9.391 33.367s-3.496 24.276-9.391 33.267c-0.4 0.5 0.3 1.199 0.799 0.799 9.99-8.092 16.384-20.38 16.384-34.066s-6.394-26.074-16.384-34.166zM0.899 20.579c-0.5-0.4-1.199 0.2-0.799 0.699 4.995 7.792 7.992 17.782 7.992 28.671s-2.997 20.879-7.992 28.671c-0.3 0.5 0.3 1.199 0.799 0.699 8.492-6.893 13.886-17.483 13.886-29.271s-5.395-22.478-13.886-29.471zM101.399 99.8c0.5 0.4 1.199-0.2 0.799-0.799-8.891-12.987-14.386-30.17-14.386-48.951s5.495-35.964 14.386-49.151c0.4-0.5-0.3-1.199-0.799-0.799-15.085 11.588-24.675 29.57-24.675 49.95s9.59 38.262 24.675 49.75zM113.686 84.116c0.5 0.4 1.199-0.2 0.799-0.799-5.894-8.991-9.391-20.679-9.391-33.367s3.496-24.276 9.391-33.367c0.4-0.5-0.3-1.199-0.799-0.799-9.99 8.192-16.384 20.479-16.384 34.266s6.394 25.974 16.384 34.066zM125.974 79.421c0.5 0.4 1.199-0.2 0.799-0.699-4.995-7.792-7.992-17.782-7.992-28.671s2.997-20.879 7.992-28.671c0.3-0.5-0.3-1.199-0.799-0.699-8.492 6.993-13.886 17.582-13.886 29.371s5.395 22.378 13.886 29.371z"></path>
</g>
<g id="icon-psychoacoustic-music">
	<path class="path1" d="M41.147 57.689c0-10.806-9.061-19.618-20.2-19.784 3.242-3.159 5.736-6.816 7.066-11.139 1.995-6.401 2.161-12.884 0.582-19.451-0.499-2.078-1.247-4.073-2.66-5.736-1.496-1.829-3.325-2.078-5.154-0.582-0.831 0.748-1.663 1.579-2.244 2.494-3.159 5.071-4.489 10.557-3.741 16.376 0.416 3.491 1.081 6.899 1.663 10.308 0.083 0.416 0 0.665-0.333 0.914-1.579 1.579-3.242 3.159-4.821 4.738-2.328 2.328-4.489 4.821-6.401 7.564-1.413 2.078-2.577 4.156-3.242 6.318-1.081 2.411-1.663 4.987-1.663 7.731 0.083 11.139 9.31 20.033 20.615 20.033 1.829 0 3.574-0.249 5.237-0.665 0.416 2.161 0.831 4.406 1.164 6.65s0.665 4.572 0.665 6.816c0 3.741-2.577 6.65-6.401 7.398-1.662 0.333-3.325 0.249-4.821-0.582-0.748-0.416-1.247-0.997-1.413-1.829 0.166 0 0.249-0.083 0.416-0.083 2.494-0.499 4.156-2.244 4.406-4.489 0.249-2.078-0.997-4.156-2.992-5.071-2.161-0.997-4.655-0.582-6.318 0.997-2.66 2.494-2.577 7.398 0.249 9.892 3.242 2.909 7.149 3.99 11.471 3.325 3.076-0.416 5.32-1.995 6.733-4.738 0.914-1.829 1.33-3.824 1.164-5.819-0.333-3.159-0.831-6.318-1.33-9.476-0.166-1.164-0.416-2.328-0.665-3.491 7.481-3.076 12.968-10.224 12.968-18.62zM19.867 13.051c0.665-1.247 1.496-2.411 2.66-3.325 0.166-0.166 0.416-0.249 0.582-0.416 1.496-0.831 2.743-0.416 3.408 1.081 0.665 1.579 0.582 3.159 0.416 4.738-0.249 2.826-1.579 5.32-3.159 7.648-1.247 1.829-4.239 5.32-5.569 6.484-0.166-1.413-0.416-2.743-0.582-4.073-0.333-4.239 0.333-8.313 2.244-12.136zM20.615 76.392c-10.723 0-19.368-8.396-19.368-18.703s8.728-18.703 19.368-18.703 19.368 8.396 19.368 18.703-8.645 18.703-19.368 18.703zM20.615 41.563c-9.227 0-16.791 7.232-16.791 16.126s7.564 16.126 16.791 16.126 16.791-7.232 16.791-16.126-7.564-16.126-16.791-16.126zM20.615 72.735c-8.645 0-15.628-6.733-15.628-15.046s6.983-15.046 15.628-15.046 15.628 6.733 15.628 15.046-6.983 15.046-15.628 15.046zM20.615 44.971c-7.315 0-13.217 5.736-13.217 12.718s5.902 12.718 13.217 12.718 13.217-5.736 13.217-12.718c0-6.983-5.902-12.718-13.217-12.718zM20.615 69.327c-6.65 0-12.053-5.237-12.053-11.638s5.403-11.638 12.053-11.638 12.053 5.237 12.053 11.638-5.403 11.638-12.053 11.638zM20.615 48.628c-5.154 0-9.393 4.073-9.393 9.061s4.239 9.061 9.393 9.061 9.393-4.073 9.393-9.061-4.156-9.061-9.393-9.061zM20.615 65.669c-4.572 0-8.313-3.574-8.313-7.98s3.741-7.98 8.313-7.98 8.313 3.574 8.313 7.98-3.741 7.98-8.313 7.98z"></path>
</g>
<g id="icon-sleep-deeper">
	<path class="path1" d="M45.222 72.667c-6.444 0-10.111 3.444-10.111 3.444s3 3 10.111 3c7.111 0 10.111-3 10.111-3s-3.667-3.444-10.111-3.444z"></path>
	<path class="path2" d="M45.222 16.667c21 0 38.111 17.111 38.111 38.111s-17.111 38.222-38.111 38.222-38.222-17.111-38.222-38.222 17.111-38.111 38.222-38.111zM45.222 9.667c-25 0-45.222 20.222-45.222 45.111s20.222 45.222 45.222 45.222 45.222-20.222 45.222-45.222-20.333-45.111-45.222-45.111v0z"></path>
	<path class="path3" d="M69.667 55.778c0-1.778-6.556 1-10.444 1s-10.444-3-10.444-1 6.556 5.889 10.444 5.889c3.889-0.111 10.444-4.111 10.444-5.889z"></path>
	<path class="path4" d="M20.778 55.778c0-1.778 6.444 1 10.222 1s10.222-3 10.222-1-6.444 5.889-10.222 5.889c-3.667-0.111-10.222-4.111-10.222-5.889z"></path>
	<path class="path5" d="M108.111 29.111l-8.444 11.556h6.889c1 0 2 0.889 2 2s-0.889 2-2 2h-10.778c-0.111 0-0.222 0-0.333 0 0 0-0.111 0-0.111 0-0.111 0-0.111-0.111-0.222-0.111s-0.111 0-0.111-0.111c0 0-0.111-0.111-0.111-0.111 0-0.111-0.111-0.111-0.111-0.111s0 0 0 0-0.111 0-0.111-0.111c0 0-0.111-0.111-0.111-0.111-0.111-0.111-0.111-0.111-0.111-0.222s-0.111-0.111-0.111-0.111-0.111-0.111-0.111-0.111c-0.111 0-0.111-0.111-0.111-0.222 0 0 0-0.111-0.111-0.222 0 0 0-0.111 0-0.111 0-0.111 0-0.222 0-0.222s0-0.111 0-0.111c0 0 0 0 0 0 0-0.111 0-0.222 0-0.222s0-0.111 0-0.111c0 0 0-0.111 0.111-0.222 0-0.111 0-0.111 0-0.222 0 0 0.111-0.111 0.111-0.111 0-0.111 0.111-0.111 0.111-0.222 0 0 0 0 0 0l8.333-11.556h-6.778c-1 0-2-0.889-2-2s0.889-2 2-2h10.778c0.111 0 0.111 0 0.222 0s0.111 0 0.222 0 0.111 0 0.222 0.111c0.111 0 0.111 0 0.222 0 0 0 0.111 0.111 0.111 0.111 0.111 0 0.111 0.111 0.222 0.111 0 0 0 0 0 0s0.111 0 0.111 0.111c0 0 0.111 0.111 0.222 0.222 0 0 0.111 0.111 0.111 0.111 0 0.111 0.111 0.111 0.111 0.111s0 0.111 0.111 0.111c0 0.111 0.111 0.111 0.111 0.222 0 0 0 0.111 0 0.222s0 0.111 0.111 0.222c0 0.111 0 0.111 0 0.222 0 0 0 0.111 0 0.111v0c0 0.111 0 0.222 0 0.222 0 0.111 0 0.111 0 0.222 0 0 0 0.111 0 0.222s0 0.111-0.111 0.222c0 0 0 0 0 0.111-0.444 0-0.444 0.111-0.556 0.111 0 0 0 0 0 0z"></path>
	<path class="path6" d="M93.556 9.111l-6.111 8.444h5c0.778 0 1.444 0.667 1.444 1.444s-0.667 1.444-1.444 1.444h-7.778c-0.111 0-0.111 0-0.222 0 0 0 0 0-0.111 0 0 0-0.111 0-0.111 0s-0.111 0-0.111 0c0 0-0.111 0-0.111 0s0 0 0-0.111c0 0 0 0 0 0s0 0-0.111 0c0 0-0.111-0.111-0.111-0.111 0-0.111-0.111-0.111-0.111-0.111s0-0.111-0.111-0.111c0 0 0 0 0-0.111 0 0-0.111 0-0.111-0.111 0 0 0 0 0-0.111 0 0 0-0.111 0-0.111s0-0.111 0-0.222c0 0 0 0 0-0.111 0 0 0 0 0 0s0-0.111 0-0.222c0 0 0 0 0-0.111 0 0 0-0.111 0-0.111s0-0.111 0-0.111c0 0 0.111-0.111 0.111-0.111s0-0.111 0.111-0.111c0 0 0 0 0 0l6.111-8.444h-5c-0.778 0-1.444-0.667-1.444-1.444s0.667-1.444 1.444-1.444h7.778c0 0 0.111 0 0.111 0 0.111 0 0.111 0 0.111 0s0.111 0 0.111 0c0 0 0.111 0 0.111 0s0 0.111 0.111 0.111c0 0 0.111 0 0.111 0.111 0 0 0 0 0 0s0 0 0 0 0.111 0 0.111 0.111c0 0 0 0 0.111 0.111 0 0 0 0.111 0.111 0.111 0 0 0 0 0.111 0 0 0.111 0 0.111 0 0.111s0 0.111 0 0.111c0 0 0 0.111 0 0.111s0 0.111 0 0.111c0 0 0 0.111 0 0.111v0c0 0 0 0.111 0 0.111 0 0.111 0 0.111 0 0.111s0 0.111 0 0.111c0 0 0 0.111-0.111 0.111 0 0 0 0 0 0.111 0.111 0.222 0.111 0.222 0 0.333 0 0 0 0 0 0z"></path>
	<path class="path7" d="M76.444 1.778l-4.778 6.556h3.889c0.556 0 1.111 0.444 1.111 1.111s-0.556 1.111-1.111 1.111h-6.111c-0.111 0-0.111 0-0.222 0 0 0 0 0-0.111 0 0 0-0.111 0-0.111 0s-0.111 0-0.111 0c0 0-0.111 0-0.111 0s0 0 0-0.111c0 0 0 0 0 0s0 0-0.111 0c0 0-0.111-0.111-0.111-0.111 0-0.111-0.111-0.111-0.111-0.111s0-0.111-0.111-0.111c0 0 0 0 0-0.111 0 0-0.111 0-0.111-0.111 0 0 0 0 0-0.111 0 0 0-0.111 0-0.111s0-0.111 0-0.111c0 0 0 0 0-0.111 0 0 0 0 0 0s0-0.111 0-0.111c0 0 0 0 0-0.111 0 0 0-0.111 0-0.111s0-0.111 0-0.111c0 0 0.111-0.111 0.111-0.111s0-0.111 0.111-0.111c0 0 0 0 0 0l4.889-6.556h-3.889c-0.556 0-1.111-0.444-1.111-1.111s0.556-1.111 1.111-1.111h6.111c0 0 0.111 0 0.111 0 0.111 0 0.111 0 0.111 0s0.111 0 0.111 0c0 0 0.111 0 0.111 0s0 0.111 0.111 0.111c0 0 0.111 0 0.111 0.111 0 0 0 0 0 0s0 0 0 0 0.111 0 0.111 0.111c0 0 0 0 0.111 0.111 0 0 0 0.111 0.111 0.111 0 0 0 0 0.111 0 0 0.111 0 0.111 0 0.111s0 0.111 0 0.111c0 0 0 0.111 0 0.111s0 0.111 0 0.111 0 0.111 0 0.111v0c0 0 0 0.111 0 0.111 0 0.111 0 0.111 0 0.111s0 0.111 0 0.111c0 0 0 0.111-0.111 0.111 0 0 0 0 0 0.111 0 0 0 0.111-0.111 0.111 0 0 0 0 0 0z"></path>
</g>
<g id="icon-sleep-faster">
	<path class="path1" d="M23.333 14.444c-1.667-1.444-3.889-2.333-6.333-2.333-5.333 0-9.667 4.333-9.667 9.667 0 1.444 0.333 2.778 0.889 4.111 4.222-4.778 9.333-8.667 15.111-11.444z"></path>
	<path class="path2" d="M43.333 100c23.889 0 43.333-19.333 43.333-43.333 0-21.444-15.556-39.222-36-42.667v-8.111h3.778c1.222 0 2.222-1.333 2.222-3s-1-2.889-2.333-2.889h-22.111c-1.222 0-2.222 1.333-2.222 3s1 3 2.222 3h3.778v8.111c-3.667 0.667-7.111 1.667-10.444 3.222-5.889 2.667-11.111 6.667-15.333 11.444-6.333 7.444-10.222 17.222-10.222 27.889 0 24 19.333 43.333 43.333 43.333zM17.778 31.444c2.444-2.444 5.222-4.556 8.333-6.222 5.111-2.778 11-4.444 17.222-4.444 19.778 0 36 16.111 36 36s-16.222 35.889-36 35.889-36-16.111-36-36c0-9.778 4-18.778 10.444-25.222z"></path>
	<path class="path3" d="M21.556 78.444c1.444 1.444 2.889 2.667 4.556 3.778 0.778 0.556 1.667 1.111 2.556 1.556 4.333 2.333 9.333 3.667 14.667 3.667 0.667 0 1.333 0 2-0.111 3.222-0.222 6.333-0.889 9.333-2.111 1.111-0.444 2.333-1 3.333-1.556 0.889-0.444 1.667-1 2.556-1.556 1.667-1.111 3.111-2.333 4.556-3.778 5.556-5.556 9-13.222 9-21.778 0-8.444-3.444-16.222-9-21.778-1.444-1.444-2.889-2.667-4.556-3.778-0.778-0.556-1.667-1.111-2.556-1.556-1.111-0.556-2.222-1.111-3.333-1.556-2.889-1.111-6-1.889-9.333-2.111-0.667 0-1.333-0.111-2-0.111-5.333 0-10.333 1.333-14.667 3.667-0.889 0.444-1.667 1-2.556 1.556-1.667 1.111-3.111 2.333-4.556 3.778-5.556 5.556-9 13.222-9 21.778 0 8.778 3.444 16.444 9 22zM43.333 32.222v23l-23.111 8.889c-4.222-15.889 7-31.889 23.111-31.889z"></path>
</g>
<g id="icon-sleep-genius">
	<path class="path1" d="M25.905 29.864c14.989-18.439 42.081-21.324 60.464-6.335 5.939 4.808 10.238 10.916 12.839 17.591-4.242-23.416-24.661-41.12-49.208-41.12-27.602 0-50 22.398-50 50s22.398 50 50 50c1.81 0 3.563-0.113 5.317-0.283-8.258-0.735-16.346-3.846-23.247-9.446-18.382-14.876-21.154-41.968-6.165-60.407z"></path>
	<path class="path2" d="M60.464 22.624c-18.213 0-32.975 14.932-32.975 33.314 0 4.412 0.848 8.654 2.432 12.5-0.679-6.561 1.018-13.575 5.373-19.627 8.824-12.217 25.057-15.611 36.312-7.523s13.235 24.548 4.412 36.821c-4.129 5.769-9.955 9.559-16.063 11.143 0.226 0 0.396 0 0.622 0 18.213 0 32.975-14.932 32.975-33.314s-14.876-33.314-33.088-33.314z"></path>
	<path class="path3" d="M74.434 54.695c-4.186-8.032-14.14-11.143-22.285-6.9-1.923 1.018-3.62 2.376-4.921 3.903 2.715-1.81 6.222-2.658 9.842-2.149 7.409 1.075 12.613 7.466 11.652 14.253s-7.805 11.482-15.215 10.407c-3.507-0.509-6.504-2.206-8.597-4.581 0.057 0.113 0.113 0.226 0.113 0.283 4.186 8.032 14.14 11.143 22.285 6.9 8.145-4.129 11.312-14.027 7.127-22.115z"></path>
</g>
<g id="icon-sleep-longer">
	<path class="path1" d="M67.556 10c-0.889 0-1.667 0.111-2.667 0.222-4.222-6.444-11.222-10.222-18.889-10.222-12.111 0-22.111 9.667-22.667 21.667-0.222 0-0.444 0-0.556 0-12.556-0.111-22.778 10.111-22.778 22.667 0 5.667 2.111 11.111 5.889 15.333-0.778 2.556-1.222 5.222-1.222 7.889 0 14.222 11.667 25.778 25.889 25.778 3.667 0 7.222-0.778 10.556-2.222 4.667 5.667 11.556 8.889 19 8.889 12.111 0 22.556-8.889 24.333-20.889 12.333-1 21.889-11.222 21.889-23.667 0-10.222-6.444-19.222-16.111-22.556 0-0.111 0-0.111 0-0.222 0.111-12.556-10.111-22.667-22.667-22.667zM18.889 50c0.444-11.667 5.222-19.889 14.333-24.667 7.111-3.667 14.667-4 16.778-4 0.444 0 0.667 0 0.667 0 0.222 0 0.444 0.222 0.444 0.444s-0.111 0.444-0.333 0.556c-5.333 1.444-9.889 8.222-9.889 8.333-6.222 8.889-5.333 16.444-3.444 21.333 3 8.111 10.667 13.889 16.667 15.444 1.889 0.444 3.778 0.667 5.667 0.667 5.667 0 9.889-2.111 11.778-3 0.778-0.333 1-0.556 1.222-0.556s0.556 0.222 0.556 0.556c0 0.889-5.222 9.778-12.556 12.667-3.333 1.444-7.556 2.222-11.889 2.222-13.667 0-28.778-7.889-30-30zM63.778 18c0-0.222 0.111-0.444 0.333-0.556s0.444-0.111 0.667 0l4.556 3.444 5.444-1.778c0.222-0.111 0.444 0 0.667 0.111 0.222 0.222 0.222 0.444 0.111 0.667l-1.778 5.444 3.444 4.556c0.111 0.222 0.111 0.444 0 0.667s-0.333 0.333-0.556 0.333l-5.667-0.111-3.333 4.667c-0.111 0.111-0.333 0.222-0.556 0.222 0 0-0.111 0-0.111 0-0.222 0-0.444-0.222-0.444-0.444l-1.667-5.444-5.444-1.667c-0.222-0.111-0.444-0.222-0.444-0.444s0.111-0.444 0.222-0.556l4.667-3.333-0.111-5.778zM51.111 44.556c0-0.111 0.111-0.222 0.222-0.333s0.222 0 0.333 0l2.667 2 3.111-1c0.111 0 0.222 0 0.333 0.111s0.111 0.222 0.111 0.333l-1 3.111 2 2.667c0.111 0.111 0.111 0.222 0 0.333s-0.222 0.222-0.333 0.222h-3.222l-2.111 2.444c-0.111 0.111-0.222 0.111-0.333 0.111 0 0 0 0 0 0-0.111 0-0.222-0.111-0.333-0.222l-1-3.111-3.111-1c-0.111 0-0.222-0.111-0.222-0.333 0-0.111 0-0.222 0.111-0.333l2.778-1.778v-3.222zM72.889 58.111c-0.111 0.111-0.222 0.222-0.444 0.222 0 0 0 0-0.111 0-0.222 0-0.333-0.111-0.444-0.333l-1.333-4.333-4.222-1.444c-0.222-0.111-0.333-0.222-0.333-0.444s0-0.333 0.222-0.444l3.778-2.667-0.111-4.556c0-0.222 0.111-0.333 0.222-0.444 0.222-0.111 0.333-0.111 0.556 0l3.667 2.778 4.333-1.444c0.222-0.111 0.333 0 0.556 0.111 0.111 0.111 0.222 0.333 0.111 0.556l-1.556 4.333 2.778 3.667c0.111 0.111 0.111 0.333 0 0.556s-0.222 0.222-0.444 0.222l-4.556-0.111-2.667 3.778z"></path>
</g>
<g id="icon-star">
	<path class="path1" d="M100.667 34l-29-2.667c-1.667 0-3.333-1.333-4-3l-10.333-25c-1.667-4-7.667-4-9.333 0l-10.333 25c-0.667 1.667-2.333 3-4.333 3l-29 2.667c-4.333 0.333-6 5.667-2.667 8.667l22 19.333c1.333 1.333 2 3 1.667 5l-6.667 27c-1 4.333 3.667 7.667 7.333 5.333l24.333-14.333c1.667-1 3.333-1 5 0l24.333 14.333c3.667 2.333 8.333-1 7.333-5.333l-6.333-27c-0.333-1.667 0-3.667 1.667-5l22-19.333c2.333-2.667 0.667-8-3.667-8.667z"></path>
</g>
<g id="icon-white-noise">
	<path class="path1" d="M6.306 83.884l-6.006-24.124c-1.301-5.105 1.802-10.31 7.007-11.612l17.017-4.204 10.611 42.743-17.017 4.204c-5.105 1.301-10.31-1.802-11.612-7.007zM71.271 13.313c-1.301-5.105-5.405-6.306-9.109-2.503l-31.732 31.532 10.611 42.743 43.343 14.515c5.005 1.702 8.108-1.101 6.807-6.306l-19.92-79.98zM93.493 56.456l33.433-8.308c3.303-0.801 5.305-4.104 4.504-7.407s-4.104-5.305-7.407-4.504l-33.433 8.308c-3.303 0.801-5.305 4.104-4.504 7.407 0.701 2.803 3.203 4.605 5.906 4.605 0.5 0.1 1.001 0 1.501-0.1zM87.788 36.537c1.602 0 3.303-0.701 4.504-2.002l22.523-24.224c2.302-2.503 2.202-6.306-0.3-8.609s-6.306-2.202-8.609 0.3l-22.523 24.224c-2.302 2.503-2.202 6.306 0.3 8.609 1.101 1.101 2.603 1.702 4.104 1.702zM130.831 74.675l-31.331-10.811c-3.203-1.101-6.707 0.601-7.808 3.804s0.601 6.707 3.804 7.808l31.231 10.911c0.701 0.2 1.301 0.3 2.002 0.3 2.503 0 4.905-1.602 5.806-4.104 1.201-3.303-0.5-6.707-3.704-7.908z"></path>
</g>
</defs>

<g fill="#000000">
	<use xlink:href="#icon-facebook" transform="translate(0 0)"></use>
	<use xlink:href="#icon-gift" transform="translate(115 0)"></use>
	<use xlink:href="#icon-multi-band-benarul-beats" transform="translate(260 0)"></use>
	<use xlink:href="#icon-neurosensoty-algorithems" transform="translate(379 0)"></use>
	<use xlink:href="#icon-pink-noise" transform="translate(553 0)"></use>
	<use xlink:href="#icon-psychoacoustic-music" transform="translate(690 0)"></use>
	<use xlink:href="#icon-sleep-deeper" transform="translate(741 0)"></use>
	<use xlink:href="#icon-sleep-faster" transform="translate(860 0)"></use>
	<use xlink:href="#icon-sleep-genius" transform="translate(957 0)"></use>
	<use xlink:href="#icon-sleep-longer" transform="translate(1066 0)"></use>
	<use xlink:href="#icon-star" transform="translate(0 110)"></use>
	<use xlink:href="#icon-white-noise" transform="translate(115 110)"></use>
</g>

</svg>
