<?xml version="1.0" encoding="utf-8"?>
<!-- Generator: Adobe Illustrator 18.0.0, SVG Export Plug-In . SVG Version: 6.00 Build 0)  -->
<!DOCTYPE svg PUBLIC "-//W3C//DTD SVG 1.1//EN" "http://www.w3.org/Graphics/SVG/1.1/DTD/svg11.dtd">
<svg version="1.1" id="Layer_1" xmlns="http://www.w3.org/2000/svg" xmlns:xlink="http://www.w3.org/1999/xlink" x="0px" y="0px"
	 width="1280px" height="800px" viewBox="0 0 1280 800" enable-background="new 0 0 1280 800" xml:space="preserve">
<g>
	<g>
		<path fill="#1E477A" d="M380.8,188.6c0-0.6,0.4-1.1,0.9-1.1h0.2h0.1h31.8c0.6,0,1,0.5,1,1.1c0,0.6-0.4,1-1,1h-30.9v26.7h27.3
			c0.6,0,1,0.5,1,1c0,0.7-0.4,1.1-1,1.1h-27.3v27.9c0,0.6-0.4,1.1-1.1,1.1c-0.5,0-0.9-0.5-0.9-1.1V188.6z"/>
		<path fill="#1E477A" d="M459.5,231.2h-30l-5.7,15.3c-0.1,0.4-0.5,0.8-0.9,0.8c-0.1,0-0.3-0.1-0.4-0.1c-0.5-0.3-0.8-0.9-0.5-1.5
			l21.6-57.6c0.2-0.5,0.6-0.8,1.1-0.7c0.4,0,0.9,0.3,1.1,0.7l21.6,57.6c0.3,0.6-0.1,1.2-0.6,1.5c-0.2,0-0.3,0.1-0.3,0.1
			c-0.4,0-0.9-0.3-1.1-0.8L459.5,231.2z M430.3,228.9h28.3l-14.1-37.5L430.3,228.9z"/>
		<path fill="#1E477A" d="M482.5,247.5h-0.2c-0.6,0-1.1-0.5-1.1-1.1v-57.8c0-0.6,0.5-1.1,1.1-1.1c0.6,0,1,0.5,1,1.1v56.8h30.9
			c0.7,0,1.1,0.4,1.1,1c0,0.6-0.4,1.1-1.1,1.1H482.5z"/>
		<path fill="#1E477A" d="M530.7,247.5h-0.2c-0.6,0-1.1-0.5-1.1-1.1v-57.8c0-0.6,0.5-1.1,1.1-1.1c0.6,0,1,0.5,1,1.1v56.8h30.9
			c0.7,0,1.1,0.4,1.1,1c0,0.6-0.4,1.1-1.1,1.1H530.7z"/>
		<path fill="#1E477A" d="M637.1,231.2h-30l-5.7,15.3c-0.1,0.4-0.5,0.8-0.9,0.8c-0.1,0-0.3-0.1-0.4-0.1c-0.5-0.3-0.8-0.9-0.5-1.5
			l21.6-57.6c0.2-0.5,0.6-0.8,1.1-0.7c0.4,0,0.9,0.3,1.1,0.7l21.6,57.6c0.3,0.6-0.1,1.2-0.6,1.5c-0.2,0-0.3,0.1-0.3,0.1
			c-0.4,0-0.9-0.3-1.1-0.8L637.1,231.2z M608,228.9h28.3l-14.1-37.5L608,228.9z"/>
		<path fill="#1E477A" d="M654.1,239.2c-0.4-0.4-0.5-1.1-0.1-1.5c0.4-0.4,1.1-0.5,1.5-0.1c0.1,0.1,9.1,8.1,20.8,8.1
			c11.6,0,20.6-6.5,20.6-14.8c0-9.5-9.2-11.7-18.9-13.9c-9.9-2.3-20.2-4.7-20.2-15.7c0-7.8,8.3-14.2,18.6-14.2
			c11.8,0,18,6.9,18.3,7.3c0.4,0.4,0.3,1.1-0.1,1.5c-0.5,0.3-1.2,0.3-1.5-0.1c-0.1-0.1-5.8-6.5-16.6-6.5c-9,0-16.4,5.4-16.4,12
			c0,9.2,9,11.3,18.5,13.5c10.1,2.3,20.5,4.7,20.5,16c0,9.5-9.9,17-22.7,17C663.8,247.9,654.4,239.6,654.1,239.2z"/>
		<path fill="#1E477A" d="M715.8,247.5h-0.2c-0.6,0-1.1-0.5-1.1-1.1v-57.8c0-0.6,0.5-1.1,1.1-1.1c0.6,0,1,0.5,1,1.1v56.8h30.9
			c0.7,0,1.1,0.4,1.1,1c0,0.6-0.4,1.1-1.1,1.1H715.8z"/>
		<path fill="#1E477A" d="M764,247.5h-0.2c-0.7,0-1-0.5-1-1.1v-57.8c0-0.5,0.3-1,1-1.1h0.1h0.1h31.8c0.6,0,1,0.5,1,1.1
			c0,0.6-0.4,1-1,1h-30.9v26.7h27.2c0.6,0,1,0.5,1,1c0,0.7-0.4,1.1-1,1.1h-27.2v26.8h30.9c0.6,0,1,0.4,1,1c0,0.6-0.4,1.1-1,1.1H764
			L764,247.5z"/>
		<path fill="#1E477A" d="M814.8,247.5h-0.2c-0.7,0-1-0.5-1-1.1v-57.8c0-0.5,0.3-1,1-1.1h0.1h0.1h31.8c0.6,0,1,0.5,1,1.1
			c0,0.6-0.4,1-1,1h-30.9v26.7h27.2c0.6,0,1,0.5,1,1c0,0.7-0.4,1.1-1,1.1h-27.2v26.8h30.9c0.6,0,1,0.4,1,1c0,0.6-0.4,1.1-1,1.1
			H814.8L814.8,247.5z"/>
		<path fill="#1E477A" d="M864.4,188.6c0-0.6,0.5-1.1,1.1-1.1h0.2h17.4c9.2,0,16.7,7.5,16.7,16.7c0,9.3-7.5,16.6-16.7,16.6h-16.5
			v25.5c0,0.6-0.4,1.1-1,1.1s-1.1-0.5-1.1-1.1V188.6z M883.1,218.6c8,0,14.5-6.3,14.5-14.4c0-8.1-6.5-14.6-14.5-14.6h-16.5v29H883.1
			z"/>
	</g>
	<g>
		<path fill="#1E477A" d="M381.1,350.9c-0.4-0.4-0.5-1.1-0.1-1.5c0.4-0.4,1.1-0.5,1.5-0.1c0.1,0.1,8.9,8,20.4,8
			c11.3,0,20.2-6.4,20.2-14.5c0-9.3-9-11.4-18.5-13.6c-9.7-2.3-19.8-4.6-19.8-15.4c0-7.6,8.1-13.9,18.2-13.9
			c11.6,0,17.6,6.8,17.9,7.1c0.4,0.4,0.3,1.1-0.1,1.5c-0.5,0.3-1.2,0.3-1.5-0.1c-0.1-0.1-5.7-6.4-16.3-6.4c-8.8,0-16,5.3-16,11.8
			c0,9,8.8,11.1,18.1,13.3c9.9,2.3,20.1,4.6,20.1,15.7c0,9.3-9.7,16.6-22.3,16.6C390.6,359.3,381.5,351.2,381.1,350.9z"/>
		<path fill="#1E477A" d="M455.1,302.2h-19.4c-0.6,0-1.1-0.4-1.1-1c0-0.6,0.5-1.1,1.1-1.1h40.9c0.7,0,1.1,0.5,1.1,1.1
			c0,0.6-0.4,1-1.1,1h-19.3v55.6c0,0.6-0.6,1.1-1.1,1.1c-0.7,0-1.1-0.5-1.1-1.1V302.2z"/>
		<path fill="#1E477A" d="M518.5,343h-29.4l-5.6,15c-0.1,0.4-0.5,0.8-0.9,0.8c-0.1,0-0.3-0.1-0.4-0.1c-0.5-0.3-0.8-0.8-0.5-1.4
			l21.2-56.4c0.2-0.5,0.6-0.8,1.1-0.7c0.4,0,0.8,0.3,1.1,0.7l21.2,56.4c0.3,0.6-0.1,1.2-0.6,1.4c-0.2,0-0.3,0.1-0.3,0.1
			c-0.4,0-0.8-0.3-1.1-0.8L518.5,343z M490,340.8h27.7L503.8,304L490,340.8z"/>
		<path fill="#1E477A" d="M550.3,330.2l-20.6-28.3c-0.4-0.4-0.3-1.1,0.3-1.4c0.4-0.3,1.1-0.3,1.4,0.2l20,27.5l19.9-27.5
			c0.4-0.4,1.1-0.5,1.5-0.2c0.5,0.3,0.7,1,0.3,1.4l-20.7,28.3v27.6c0,0.6-0.4,1.1-1,1.1c-0.6,0-1.1-0.5-1.1-1.1V330.2z"/>
		<path fill="#1E477A" d="M642.4,343H613l-5.6,15c-0.1,0.4-0.5,0.8-0.9,0.8c-0.1,0-0.3-0.1-0.4-0.1c-0.5-0.3-0.8-0.8-0.5-1.4
			l21.2-56.4c0.2-0.5,0.6-0.8,1.1-0.7c0.4,0,0.8,0.3,1.1,0.7l21.2,56.4c0.3,0.6-0.1,1.2-0.6,1.4c-0.2,0-0.3,0.1-0.3,0.1
			c-0.4,0-0.8-0.3-1.1-0.8L642.4,343z M613.9,340.8h27.7L627.7,304L613.9,340.8z"/>
		<path fill="#1E477A" d="M659.1,350.9c-0.4-0.4-0.5-1.1-0.1-1.5c0.4-0.4,1.1-0.5,1.5-0.1c0.1,0.1,8.9,8,20.4,8
			c11.3,0,20.2-6.4,20.2-14.5c0-9.3-9-11.4-18.5-13.6c-9.7-2.3-19.8-4.6-19.8-15.4c0-7.6,8.1-13.9,18.2-13.9
			c11.6,0,17.6,6.8,17.9,7.1c0.4,0.4,0.3,1.1-0.1,1.5c-0.5,0.3-1.2,0.3-1.5-0.1c-0.1-0.1-5.7-6.4-16.3-6.4c-8.8,0-16,5.3-16,11.8
			c0,9,8.8,11.1,18.1,13.3c9.9,2.3,20.1,4.6,20.1,15.7c0,9.3-9.7,16.6-22.3,16.6C668.5,359.3,659.4,351.2,659.1,350.9z"/>
		<path fill="#1E477A" d="M719.5,358.9h-0.2c-0.6,0-1.1-0.5-1.1-1.1v-56.6c0-0.6,0.5-1.1,1.1-1.1s1,0.5,1,1.1v55.6h30.3
			c0.7,0,1.1,0.4,1.1,1c0,0.6-0.4,1.1-1.1,1.1H719.5z"/>
		<path fill="#1E477A" d="M766.7,358.9h-0.2c-0.7,0-1-0.5-1-1.1v-56.6c0-0.5,0.3-1,1-1.1h0.1h0.1h31.2c0.6,0,1,0.5,1,1.1
			c0,0.6-0.4,1-1,1h-30.2v26.2h26.6c0.6,0,1,0.5,1,1c0,0.7-0.4,1.1-1,1.1h-26.6v26.3h30.2c0.6,0,1,0.4,1,1c0,0.6-0.4,1.1-1,1.1
			H766.7L766.7,358.9z"/>
		<path fill="#1E477A" d="M816.5,358.9h-0.2c-0.7,0-1-0.5-1-1.1v-56.6c0-0.5,0.3-1,1-1.1h0.1h0.1h31.2c0.6,0,1,0.5,1,1.1
			c0,0.6-0.4,1-1,1h-30.2v26.2h26.6c0.6,0,1,0.5,1,1c0,0.7-0.4,1.1-1,1.1h-26.6v26.3h30.2c0.6,0,1,0.4,1,1c0,0.6-0.4,1.1-1,1.1
			H816.5L816.5,358.9z"/>
		<path fill="#1E477A" d="M865.2,301.2c0-0.6,0.5-1.1,1.1-1.1h0.2h17c9,0,16.4,7.3,16.4,16.4c0,9.1-7.4,16.3-16.4,16.3h-16.2v25
			c0,0.6-0.4,1.1-1,1.1s-1.1-0.5-1.1-1.1V301.2z M883.5,330.6c7.8,0,14.2-6.2,14.2-14.1c0-7.9-6.4-14.3-14.2-14.3h-16.2v28.4H883.5z
			"/>
	</g>
	<g>
		<path fill="#1E477A" d="M391.1,437.8c-3-2.8-4.9-6.8-4.9-11.3c0-8.5,6.9-15.2,15.2-15.2c8.5,0,15.3,6.8,15.3,15.2
			c0,0.7-0.5,1.2-1.2,1.2c-0.6,0-1.2-0.6-1.2-1.2c0-7.2-5.7-12.9-12.9-12.9c-7,0-12.7,5.7-12.7,12.9c0,4.3,2,8.2,5.4,10.5
			c0.1,0.1,0.2,0.3,0.3,0.4c0,0.1,0.1,0.1,0.1,0.1c0.2,0.6,0,1.1-0.5,1.4c-0.2,0.2-0.4,0.3-0.6,0.3c-6.1,3.2-10.3,9.6-10.3,16.9
			c0,10.4,8.4,18.7,18.7,18.7c10.4,0,18.8-8.4,18.8-18.7c0-1.8-0.3-3.6-0.8-5.3h-0.6c-1.2-0.2-2.2-0.2-3.3-0.2
			c-6.4,0-9.9,1.6-11.8,3.4c-1.8,1.8-2.3,4-2.3,5.8c0,0.8,0.1,1.3,0.1,1.8c0.1,0.5,0.1,0.6,0.1,0.6c0.3,0.8-0.1,1.3-0.7,1.6h-0.4
			c-0.5,0-0.9-0.3-1.2-0.8c0,0-0.4-1.3-0.4-3.1c0-2.2,0.5-5.1,3-7.5c2.5-2.4,6.7-4,13.5-4c1.1,0,2.2,0,3.4,0.1h0.6
			c1.7,0,3.2-0.5,4.4-1.3c1.2-0.9,1.9-2.3,2.1-4.5c0-0.8-0.2-1.7-0.4-2.7c-0.3-0.6,0.2-1.3,0.8-1.4c0.7-0.1,1.3,0.2,1.4,0.9
			c0.3,1,0.4,2.2,0.4,3.2c0.1,2.9-1.1,5.2-2.9,6.5c-1,0.8-2.3,1.4-3.5,1.6c0.5,1.8,0.7,3.6,0.7,5.5c0,11.7-9.4,21.1-21.2,21.1
			c-11.7,0-21.1-9.4-21.1-21.1C380.8,448.3,384.9,441.5,391.1,437.8z"/>
		<path fill="#1E477A" d="M523.4,432.2l-18.6,44.2c-0.3,0.7-0.7,0.8-1.1,0.8c-0.6,0-0.8-0.2-1-0.8L476,413c-0.4-0.6,0-1.3,0.6-1.5
			c0.6-0.3,1.3,0,1.6,0.6l25.5,60.8l18.5-43.8c0.2-0.6,0.8-0.8,1.2-0.8c0.5-0.1,1,0.3,1.3,0.8l18.4,43.8l25.6-60.8
			c0.4-0.6,0.9-0.8,1.6-0.6c0.7,0.2,0.9,0.9,0.7,1.5l-26.6,63.4c-0.2,0.4-0.4,0.8-1.1,0.8c-0.7,0-0.9-0.2-1.2-0.8L523.4,432.2z"/>
		<path fill="#1E477A" d="M609.2,459.3h-32.9l-6.3,16.9c-0.1,0.5-0.6,0.8-1,0.8c-0.1,0-0.3-0.1-0.5-0.1c-0.6-0.3-0.8-0.9-0.6-1.6
			l23.7-63.3c0.2-0.6,0.7-0.8,1.2-0.8c0.5,0,0.9,0.3,1.2,0.8l23.7,63.3c0.3,0.7-0.1,1.3-0.7,1.6c-0.2,0-0.3,0.1-0.4,0.1
			c-0.5,0-0.9-0.4-1.2-0.8L609.2,459.3z M577.1,456.8h31.1l-15.5-41.2L577.1,456.8z"/>
		<path fill="#1E477A" d="M633,412.6c0-0.6,0.5-1.2,1.2-1.2c0.6,0,1.2,0.7,1.2,1.2v42.4l43.2-43.2c0.6-0.5,1.2-0.5,1.7,0
			c0.5,0.5,0.5,1.2,0,1.7l-26.9,26.9l27,34.7c0.5,0.7,0.4,1.3-0.1,1.7c-0.3,0.3-0.5,0.4-0.8,0.4c-0.4,0-0.7-0.3-0.9-0.5L651.7,442
			l-16.1,16.2c-0.1,0.1-0.1,0.2-0.2,0.2v17.5c0,0.7-0.7,1.2-1.2,1.2c-0.8,0-1.2-0.6-1.2-1.2V412.6z"/>
		<path fill="#1E477A" d="M701.6,477.2h-0.2c-0.8,0-1.1-0.6-1.1-1.2v-63.4c0-0.6,0.4-1.1,1.1-1.2h0.1h0.1h34.9
			c0.7,0,1.1,0.6,1.1,1.2c0,0.7-0.5,1.1-1.1,1.1h-33.9V443h29.8c0.7,0,1.1,0.6,1.1,1.1c0,0.8-0.5,1.2-1.1,1.2h-29.8v29.5h33.9
			c0.7,0,1.1,0.5,1.1,1.1c0,0.7-0.5,1.2-1.1,1.2H701.6L701.6,477.2z"/>
		<path fill="#1E477A" d="M784.4,412.5c0-0.7,0.5-1.2,1.2-1.2c0.7,0,1.1,0.6,1.1,1.2v38.2c0,13.4,10.7,23.9,24,24.1
			c13.2-0.2,23.9-10.7,24-24.1v-38.2c0-0.7,0.6-1.2,1.2-1.2c0.6,0,1.2,0.6,1.2,1.2v38.2c0,14.7-12,26.5-26.5,26.5
			c-14.6,0-26.4-11.8-26.4-26.5V412.5z"/>
		<path fill="#1E477A" d="M861,412.5c0-0.7,0.6-1.2,1.2-1.2h0.2h19.1c10.1,0,18.4,8.2,18.4,18.4c0,10.2-8.3,18.3-18.4,18.3h-18.2
			v28.1c0,0.7-0.5,1.2-1.1,1.2c-0.7,0-1.2-0.6-1.2-1.2V412.5z M881.5,445.4c8.8,0,15.9-7,15.9-15.8c0-8.8-7.2-16-15.9-16h-18.2v31.8
			H881.5z"/>
	</g>
	<g>
		<path fill="#1E477A" d="M426.2,595.6c0-5.9-2.7-10.1-6.1-13.1c-3.3-2.9-8.1-6.3-21.5-6.3h-14.9v36.1c0,0.9-0.6,1.6-1.5,1.6
			c-0.8,0-1.6-0.7-1.6-1.6v-81.7c0-0.8,0.7-1.6,1.6-1.6h0.1h0.1h24.6c13,0,23.6,10.5,23.6,23.6c0,10.8-7.2,19.8-17,22.5
			c1.5,0.6,2.9,1.3,4.4,2.2c5.3,3,11,8.8,11,18.2c0,6.9,1,10.7,1.8,12.4c0.8,1.6,1.6,1.5,1.9,1.5c1-0.1,1.8,0.5,1.9,1.2
			c0.2,1.6-1.1,1.9-2.1,1.9c-1.2,0-3.2-0.8-4.4-3.3C427.1,606.9,426.2,602.9,426.2,595.6z M407.2,573.1h0.2
			c11.1-0.1,20.2-9,20.2-20.4c0-11.4-9.2-20.6-20.5-20.6h-23.4v41H407.2z"/>
		<path fill="#1E477A" d="M459.9,613.9h-0.2c-1,0-1.5-0.7-1.5-1.6v-81.7c0-0.7,0.5-1.5,1.5-1.6h0.1h0.1h45c0.8,0,1.5,0.7,1.5,1.6
			c0,0.8-0.6,1.5-1.5,1.5h-43.6v37.8h38.4c0.8,0,1.5,0.7,1.5,1.5c0,1-0.6,1.6-1.5,1.6h-38.4v37.9h43.6c0.8,0,1.5,0.6,1.5,1.5
			c0,0.9-0.6,1.6-1.5,1.6H460H459.9z"/>
		<path fill="#1E477A" d="M559.4,613.5c-0.2-0.1-0.4-0.4-0.5-0.6l-34.3-81.6c-0.4-0.7,0-1.7,0.7-1.9c0.8-0.4,1.7,0,2.2,0.7
			l32.8,78.2l33-78.2c0.2-0.7,1.2-1.1,1.9-0.7c0.8,0.2,1.1,1.2,0.8,1.9l-34.3,81.6c0,0.1-0.1,0.1-0.1,0.1c-0.1,0.4-0.4,0.6-0.7,0.7
			h-0.1c-0.1,0.1-0.4,0.1-0.5,0.1h-0.1H560c-0.1-0.1-0.2-0.1-0.2-0.1C559.7,613.8,559.5,613.7,559.4,613.5z"/>
		<path fill="#1E477A" d="M615.8,530.6c0-1,0.6-1.6,1.6-1.6c0.7,0,1.5,0.6,1.5,1.6v81.7c0,1-0.7,1.6-1.5,1.6c-1,0-1.6-0.6-1.6-1.6
			V530.6z"/>
		<path fill="#1E477A" d="M681.2,613.5c-0.2-0.1-0.4-0.4-0.5-0.6l-34.3-81.6c-0.4-0.7,0-1.7,0.7-1.9c0.8-0.4,1.7,0,2.2,0.7
			l32.8,78.2l33-78.2c0.2-0.7,1.2-1.1,1.9-0.7c0.8,0.2,1.1,1.2,0.8,1.9l-34.3,81.6c0,0.1-0.1,0.1-0.1,0.1c-0.1,0.4-0.4,0.6-0.7,0.7
			h-0.1c-0.1,0.1-0.4,0.1-0.5,0.1h-0.1h-0.2c-0.1-0.1-0.2-0.1-0.2-0.1C681.5,613.8,681.3,613.7,681.2,613.5z"/>
		<path fill="#1E477A" d="M740.8,613.9h-0.2c-1,0-1.5-0.7-1.5-1.6v-81.7c0-0.7,0.5-1.5,1.5-1.6h0.1h0.1h45c0.8,0,1.5,0.7,1.5,1.6
			c0,0.8-0.6,1.5-1.5,1.5h-43.6v37.8h38.4c0.8,0,1.5,0.7,1.5,1.5c0,1-0.6,1.6-1.5,1.6h-38.4v37.9h43.6c0.8,0,1.5,0.6,1.5,1.5
			c0,0.9-0.6,1.6-1.5,1.6H741H740.8z"/>
		<path fill="#1E477A" d="M811,530.6c0-0.8,0.6-1.6,1.6-1.6h0.1h16.1c23.5,0,42.4,19,42.4,42.3c0,23.5-18.9,42.5-42.4,42.5h-16.1
			h-0.1c-1,0-1.6-0.7-1.6-1.6V530.6z M828.8,610.9c21.8-0.2,39.3-17.7,39.4-39.5c-0.1-21.6-17.6-39.3-39.4-39.3H814v78.8H828.8z"/>
		<path fill="#1E477A" d="M896.8,530.6c0-1,0.6-1.6,1.6-1.6c0.7,0,1.5,0.6,1.5,1.6v63c0,0.8-0.7,1.5-1.5,1.5c-1,0-1.6-0.6-1.6-1.5
			V530.6z M896.8,609.4c0-0.7,0.6-1.5,1.6-1.5c0.7,0,1.5,0.7,1.5,1.5v2.9c0,1-0.7,1.6-1.5,1.6c-1,0-1.6-0.6-1.6-1.6V609.4z"/>
	</g>
	<line fill="none" stroke="#00B9F1" stroke-miterlimit="10" stroke-dasharray="10" x1="381" y1="274.5" x2="900" y2="274.5"/>
	<line fill="none" stroke="#00B9F1" stroke-miterlimit="10" stroke-dasharray="10" x1="381" y1="386.5" x2="900" y2="386.5"/>
	<line fill="none" stroke="#00B9F1" stroke-miterlimit="10" stroke-dasharray="10" x1="381" y1="504.5" x2="900" y2="504.5"/>
</g>
</svg>
