<?xml version="1.0" encoding="UTF-8" standalone="no"?>
<!-- Generator: Adobe Illustrator 18.0.0, SVG Export Plug-In . SVG Version: 6.00 Build 0)  -->

<svg
   xmlns:dc="http://purl.org/dc/elements/1.1/"
   xmlns:cc="http://creativecommons.org/ns#"
   xmlns:rdf="http://www.w3.org/1999/02/22-rdf-syntax-ns#"
   xmlns:svg="http://www.w3.org/2000/svg"
   xmlns="http://www.w3.org/2000/svg"
   xmlns:sodipodi="http://sodipodi.sourceforge.net/DTD/sodipodi-0.dtd"
   xmlns:inkscape="http://www.inkscape.org/namespaces/inkscape"
   version="1.1"
   id="Layer_1"
   x="0px"
   y="0px"
   width="520"
   height="426.89999"
   viewBox="0 0 520 426.89999"
   enable-background="new 0 0 1280 800"
   xml:space="preserve"
   inkscape:version="0.48.5 r10040"
   sodipodi:docname="text-title.svg"><metadata
     id="metadata3207"><rdf:RDF><cc:Work
         rdf:about=""><dc:format>image/svg+xml</dc:format><dc:type
           rdf:resource="http://purl.org/dc/dcmitype/StillImage" /></cc:Work></rdf:RDF></metadata><defs
     id="defs3205" /><sodipodi:namedview
     pagecolor="#ffffff"
     bordercolor="#666666"
     borderopacity="1"
     objecttolerance="10"
     gridtolerance="10"
     guidetolerance="10"
     inkscape:pageopacity="0"
     inkscape:pageshadow="2"
     inkscape:window-width="1916"
     inkscape:window-height="999"
     id="namedview3203"
     showgrid="false"
     fit-margin-top="0"
     fit-margin-left="0"
     fit-margin-right="0"
     fit-margin-bottom="0"
     inkscape:zoom="1.05375"
     inkscape:cx="259.5"
     inkscape:cy="289.91934"
     inkscape:window-x="1600"
     inkscape:window-y="52"
     inkscape:window-maximized="0"
     inkscape:current-layer="Layer_1" /><g
     id="g3117"
     transform="translate(-380.5,-187.1)"><g
       id="g3119"><path
         d="m 380.8,188.6 c 0,-0.6 0.4,-1.1 0.9,-1.1 h 0.2 0.1 31.8 c 0.6,0 1,0.5 1,1.1 0,0.6 -0.4,1 -1,1 h -30.9 v 26.7 h 27.3 c 0.6,0 1,0.5 1,1 0,0.7 -0.4,1.1 -1,1.1 h -27.3 v 27.9 c 0,0.6 -0.4,1.1 -1.1,1.1 -0.5,0 -0.9,-0.5 -0.9,-1.1 v -57.7 z"
         id="path3121"
         inkscape:connector-curvature="0"
         style="fill:#1e477a" /><path
         d="m 459.5,231.2 h -30 l -5.7,15.3 c -0.1,0.4 -0.5,0.8 -0.9,0.8 -0.1,0 -0.3,-0.1 -0.4,-0.1 -0.5,-0.3 -0.8,-0.9 -0.5,-1.5 l 21.6,-57.6 c 0.2,-0.5 0.6,-0.8 1.1,-0.7 0.4,0 0.9,0.3 1.1,0.7 l 21.6,57.6 c 0.3,0.6 -0.1,1.2 -0.6,1.5 -0.2,0 -0.3,0.1 -0.3,0.1 -0.4,0 -0.9,-0.3 -1.1,-0.8 l -5.9,-15.3 z m -29.2,-2.3 h 28.3 l -14.1,-37.5 -14.2,37.5 z"
         id="path3123"
         inkscape:connector-curvature="0"
         style="fill:#1e477a" /><path
         d="m 482.5,247.5 h -0.2 c -0.6,0 -1.1,-0.5 -1.1,-1.1 v -57.8 c 0,-0.6 0.5,-1.1 1.1,-1.1 0.6,0 1,0.5 1,1.1 v 56.8 h 30.9 c 0.7,0 1.1,0.4 1.1,1 0,0.6 -0.4,1.1 -1.1,1.1 h -31.7 z"
         id="path3125"
         inkscape:connector-curvature="0"
         style="fill:#1e477a" /><path
         d="m 530.7,247.5 h -0.2 c -0.6,0 -1.1,-0.5 -1.1,-1.1 v -57.8 c 0,-0.6 0.5,-1.1 1.1,-1.1 0.6,0 1,0.5 1,1.1 v 56.8 h 30.9 c 0.7,0 1.1,0.4 1.1,1 0,0.6 -0.4,1.1 -1.1,1.1 h -31.7 z"
         id="path3127"
         inkscape:connector-curvature="0"
         style="fill:#1e477a" /><path
         d="m 637.1,231.2 h -30 l -5.7,15.3 c -0.1,0.4 -0.5,0.8 -0.9,0.8 -0.1,0 -0.3,-0.1 -0.4,-0.1 -0.5,-0.3 -0.8,-0.9 -0.5,-1.5 l 21.6,-57.6 c 0.2,-0.5 0.6,-0.8 1.1,-0.7 0.4,0 0.9,0.3 1.1,0.7 l 21.6,57.6 c 0.3,0.6 -0.1,1.2 -0.6,1.5 -0.2,0 -0.3,0.1 -0.3,0.1 -0.4,0 -0.9,-0.3 -1.1,-0.8 l -5.9,-15.3 z M 608,228.9 h 28.3 L 622.2,191.4 608,228.9 z"
         id="path3129"
         inkscape:connector-curvature="0"
         style="fill:#1e477a" /><path
         d="m 654.1,239.2 c -0.4,-0.4 -0.5,-1.1 -0.1,-1.5 0.4,-0.4 1.1,-0.5 1.5,-0.1 0.1,0.1 9.1,8.1 20.8,8.1 11.6,0 20.6,-6.5 20.6,-14.8 0,-9.5 -9.2,-11.7 -18.9,-13.9 -9.9,-2.3 -20.2,-4.7 -20.2,-15.7 0,-7.8 8.3,-14.2 18.6,-14.2 11.8,0 18,6.9 18.3,7.3 0.4,0.4 0.3,1.1 -0.1,1.5 -0.5,0.3 -1.2,0.3 -1.5,-0.1 -0.1,-0.1 -5.8,-6.5 -16.6,-6.5 -9,0 -16.4,5.4 -16.4,12 0,9.2 9,11.3 18.5,13.5 10.1,2.3 20.5,4.7 20.5,16 0,9.5 -9.9,17 -22.7,17 -12.6,0.1 -22,-8.2 -22.3,-8.6 z"
         id="path3131"
         inkscape:connector-curvature="0"
         style="fill:#1e477a" /><path
         d="m 715.8,247.5 h -0.2 c -0.6,0 -1.1,-0.5 -1.1,-1.1 v -57.8 c 0,-0.6 0.5,-1.1 1.1,-1.1 0.6,0 1,0.5 1,1.1 v 56.8 h 30.9 c 0.7,0 1.1,0.4 1.1,1 0,0.6 -0.4,1.1 -1.1,1.1 h -31.7 z"
         id="path3133"
         inkscape:connector-curvature="0"
         style="fill:#1e477a" /><path
         d="m 764,247.5 h -0.2 c -0.7,0 -1,-0.5 -1,-1.1 v -57.8 c 0,-0.5 0.3,-1 1,-1.1 h 0.1 0.1 31.8 c 0.6,0 1,0.5 1,1.1 0,0.6 -0.4,1 -1,1 h -30.9 v 26.7 h 27.2 c 0.6,0 1,0.5 1,1 0,0.7 -0.4,1.1 -1,1.1 h -27.2 v 26.8 h 30.9 c 0.6,0 1,0.4 1,1 0,0.6 -0.4,1.1 -1,1.1 H 764 l 0,0.2 z"
         id="path3135"
         inkscape:connector-curvature="0"
         style="fill:#1e477a" /><path
         d="m 814.8,247.5 h -0.2 c -0.7,0 -1,-0.5 -1,-1.1 v -57.8 c 0,-0.5 0.3,-1 1,-1.1 h 0.1 0.1 31.8 c 0.6,0 1,0.5 1,1.1 0,0.6 -0.4,1 -1,1 h -30.9 v 26.7 h 27.2 c 0.6,0 1,0.5 1,1 0,0.7 -0.4,1.1 -1,1.1 h -27.2 v 26.8 h 30.9 c 0.6,0 1,0.4 1,1 0,0.6 -0.4,1.1 -1,1.1 h -31.8 l 0,0.2 z"
         id="path3137"
         inkscape:connector-curvature="0"
         style="fill:#1e477a" /><path
         d="m 864.4,188.6 c 0,-0.6 0.5,-1.1 1.1,-1.1 h 0.2 17.4 c 9.2,0 16.7,7.5 16.7,16.7 0,9.3 -7.5,16.6 -16.7,16.6 h -16.5 v 25.5 c 0,0.6 -0.4,1.1 -1,1.1 -0.6,0 -1.1,-0.5 -1.1,-1.1 v -57.7 z m 18.7,30 c 8,0 14.5,-6.3 14.5,-14.4 0,-8.1 -6.5,-14.6 -14.5,-14.6 h -16.5 v 29 h 16.5 z"
         id="path3139"
         inkscape:connector-curvature="0"
         style="fill:#1e477a" /></g><g
       id="g3141"><path
         d="m 381.1,350.9 c -0.4,-0.4 -0.5,-1.1 -0.1,-1.5 0.4,-0.4 1.1,-0.5 1.5,-0.1 0.1,0.1 8.9,8 20.4,8 11.3,0 20.2,-6.4 20.2,-14.5 0,-9.3 -9,-11.4 -18.5,-13.6 -9.7,-2.3 -19.8,-4.6 -19.8,-15.4 0,-7.6 8.1,-13.9 18.2,-13.9 11.6,0 17.6,6.8 17.9,7.1 0.4,0.4 0.3,1.1 -0.1,1.5 -0.5,0.3 -1.2,0.3 -1.5,-0.1 -0.1,-0.1 -5.7,-6.4 -16.3,-6.4 -8.8,0 -16,5.3 -16,11.8 0,9 8.8,11.1 18.1,13.3 9.9,2.3 20.1,4.6 20.1,15.7 0,9.3 -9.7,16.6 -22.3,16.6 -12.3,-0.1 -21.4,-8.2 -21.8,-8.5 z"
         id="path3143"
         inkscape:connector-curvature="0"
         style="fill:#1e477a" /><path
         d="m 455.1,302.2 h -19.4 c -0.6,0 -1.1,-0.4 -1.1,-1 0,-0.6 0.5,-1.1 1.1,-1.1 h 40.9 c 0.7,0 1.1,0.5 1.1,1.1 0,0.6 -0.4,1 -1.1,1 h -19.3 v 55.6 c 0,0.6 -0.6,1.1 -1.1,1.1 -0.7,0 -1.1,-0.5 -1.1,-1.1 v -55.6 z"
         id="path3145"
         inkscape:connector-curvature="0"
         style="fill:#1e477a" /><path
         d="m 518.5,343 h -29.4 l -5.6,15 c -0.1,0.4 -0.5,0.8 -0.9,0.8 -0.1,0 -0.3,-0.1 -0.4,-0.1 -0.5,-0.3 -0.8,-0.8 -0.5,-1.4 l 21.2,-56.4 c 0.2,-0.5 0.6,-0.8 1.1,-0.7 0.4,0 0.8,0.3 1.1,0.7 l 21.2,56.4 c 0.3,0.6 -0.1,1.2 -0.6,1.4 -0.2,0 -0.3,0.1 -0.3,0.1 -0.4,0 -0.8,-0.3 -1.1,-0.8 l -5.8,-15 z M 490,340.8 h 27.7 L 503.8,304 490,340.8 z"
         id="path3147"
         inkscape:connector-curvature="0"
         style="fill:#1e477a" /><path
         d="m 550.3,330.2 -20.6,-28.3 c -0.4,-0.4 -0.3,-1.1 0.3,-1.4 0.4,-0.3 1.1,-0.3 1.4,0.2 l 20,27.5 19.9,-27.5 c 0.4,-0.4 1.1,-0.5 1.5,-0.2 0.5,0.3 0.7,1 0.3,1.4 l -20.7,28.3 v 27.6 c 0,0.6 -0.4,1.1 -1,1.1 -0.6,0 -1.1,-0.5 -1.1,-1.1 v -27.6 z"
         id="path3149"
         inkscape:connector-curvature="0"
         style="fill:#1e477a" /><path
         d="M 642.4,343 H 613 l -5.6,15 c -0.1,0.4 -0.5,0.8 -0.9,0.8 -0.1,0 -0.3,-0.1 -0.4,-0.1 -0.5,-0.3 -0.8,-0.8 -0.5,-1.4 l 21.2,-56.4 c 0.2,-0.5 0.6,-0.8 1.1,-0.7 0.4,0 0.8,0.3 1.1,0.7 l 21.2,56.4 c 0.3,0.6 -0.1,1.2 -0.6,1.4 -0.2,0 -0.3,0.1 -0.3,0.1 -0.4,0 -0.8,-0.3 -1.1,-0.8 l -5.8,-15 z m -28.5,-2.2 h 27.7 L 627.7,304 613.9,340.8 z"
         id="path3151"
         inkscape:connector-curvature="0"
         style="fill:#1e477a" /><path
         d="m 659.1,350.9 c -0.4,-0.4 -0.5,-1.1 -0.1,-1.5 0.4,-0.4 1.1,-0.5 1.5,-0.1 0.1,0.1 8.9,8 20.4,8 11.3,0 20.2,-6.4 20.2,-14.5 0,-9.3 -9,-11.4 -18.5,-13.6 -9.7,-2.3 -19.8,-4.6 -19.8,-15.4 0,-7.6 8.1,-13.9 18.2,-13.9 11.6,0 17.6,6.8 17.9,7.1 0.4,0.4 0.3,1.1 -0.1,1.5 -0.5,0.3 -1.2,0.3 -1.5,-0.1 -0.1,-0.1 -5.7,-6.4 -16.3,-6.4 -8.8,0 -16,5.3 -16,11.8 0,9 8.8,11.1 18.1,13.3 9.9,2.3 20.1,4.6 20.1,15.7 0,9.3 -9.7,16.6 -22.3,16.6 -12.4,-0.1 -21.5,-8.2 -21.8,-8.5 z"
         id="path3153"
         inkscape:connector-curvature="0"
         style="fill:#1e477a" /><path
         d="m 719.5,358.9 h -0.2 c -0.6,0 -1.1,-0.5 -1.1,-1.1 v -56.6 c 0,-0.6 0.5,-1.1 1.1,-1.1 0.6,0 1,0.5 1,1.1 v 55.6 h 30.3 c 0.7,0 1.1,0.4 1.1,1 0,0.6 -0.4,1.1 -1.1,1.1 h -31.1 z"
         id="path3155"
         inkscape:connector-curvature="0"
         style="fill:#1e477a" /><path
         d="m 766.7,358.9 h -0.2 c -0.7,0 -1,-0.5 -1,-1.1 v -56.6 c 0,-0.5 0.3,-1 1,-1.1 h 0.1 0.1 31.2 c 0.6,0 1,0.5 1,1.1 0,0.6 -0.4,1 -1,1 h -30.2 v 26.2 h 26.6 c 0.6,0 1,0.5 1,1 0,0.7 -0.4,1.1 -1,1.1 h -26.6 v 26.3 h 30.2 c 0.6,0 1,0.4 1,1 0,0.6 -0.4,1.1 -1,1.1 h -31.2 l 0,0 z"
         id="path3157"
         inkscape:connector-curvature="0"
         style="fill:#1e477a" /><path
         d="m 816.5,358.9 h -0.2 c -0.7,0 -1,-0.5 -1,-1.1 v -56.6 c 0,-0.5 0.3,-1 1,-1.1 h 0.1 0.1 31.2 c 0.6,0 1,0.5 1,1.1 0,0.6 -0.4,1 -1,1 h -30.2 v 26.2 h 26.6 c 0.6,0 1,0.5 1,1 0,0.7 -0.4,1.1 -1,1.1 h -26.6 v 26.3 h 30.2 c 0.6,0 1,0.4 1,1 0,0.6 -0.4,1.1 -1,1.1 h -31.2 l 0,0 z"
         id="path3159"
         inkscape:connector-curvature="0"
         style="fill:#1e477a" /><path
         d="m 865.2,301.2 c 0,-0.6 0.5,-1.1 1.1,-1.1 h 0.2 17 c 9,0 16.4,7.3 16.4,16.4 0,9.1 -7.4,16.3 -16.4,16.3 h -16.2 v 25 c 0,0.6 -0.4,1.1 -1,1.1 -0.6,0 -1.1,-0.5 -1.1,-1.1 v -56.6 z m 18.3,29.4 c 7.8,0 14.2,-6.2 14.2,-14.1 0,-7.9 -6.4,-14.3 -14.2,-14.3 h -16.2 v 28.4 h 16.2 z"
         id="path3161"
         inkscape:connector-curvature="0"
         style="fill:#1e477a" /></g><g
       id="g3163"><path
         d="m 391.1,437.8 c -3,-2.8 -4.9,-6.8 -4.9,-11.3 0,-8.5 6.9,-15.2 15.2,-15.2 8.5,0 15.3,6.8 15.3,15.2 0,0.7 -0.5,1.2 -1.2,1.2 -0.6,0 -1.2,-0.6 -1.2,-1.2 0,-7.2 -5.7,-12.9 -12.9,-12.9 -7,0 -12.7,5.7 -12.7,12.9 0,4.3 2,8.2 5.4,10.5 0.1,0.1 0.2,0.3 0.3,0.4 0,0.1 0.1,0.1 0.1,0.1 0.2,0.6 0,1.1 -0.5,1.4 -0.2,0.2 -0.4,0.3 -0.6,0.3 -6.1,3.2 -10.3,9.6 -10.3,16.9 0,10.4 8.4,18.7 18.7,18.7 10.4,0 18.8,-8.4 18.8,-18.7 0,-1.8 -0.3,-3.6 -0.8,-5.3 h -0.6 c -1.2,-0.2 -2.2,-0.2 -3.3,-0.2 -6.4,0 -9.9,1.6 -11.8,3.4 -1.8,1.8 -2.3,4 -2.3,5.8 0,0.8 0.1,1.3 0.1,1.8 0.1,0.5 0.1,0.6 0.1,0.6 0.3,0.8 -0.1,1.3 -0.7,1.6 h -0.4 c -0.5,0 -0.9,-0.3 -1.2,-0.8 0,0 -0.4,-1.3 -0.4,-3.1 0,-2.2 0.5,-5.1 3,-7.5 2.5,-2.4 6.7,-4 13.5,-4 1.1,0 2.2,0 3.4,0.1 h 0.6 c 1.7,0 3.2,-0.5 4.4,-1.3 1.2,-0.9 1.9,-2.3 2.1,-4.5 0,-0.8 -0.2,-1.7 -0.4,-2.7 -0.3,-0.6 0.2,-1.3 0.8,-1.4 0.7,-0.1 1.3,0.2 1.4,0.9 0.3,1 0.4,2.2 0.4,3.2 0.1,2.9 -1.1,5.2 -2.9,6.5 -1,0.8 -2.3,1.4 -3.5,1.6 0.5,1.8 0.7,3.6 0.7,5.5 0,11.7 -9.4,21.1 -21.2,21.1 -11.7,0 -21.1,-9.4 -21.1,-21.1 0.3,-8 4.4,-14.8 10.6,-18.5 z"
         id="path3165"
         inkscape:connector-curvature="0"
         style="fill:#1e477a" /><path
         d="m 523.4,432.2 -18.6,44.2 c -0.3,0.7 -0.7,0.8 -1.1,0.8 -0.6,0 -0.8,-0.2 -1,-0.8 L 476,413 c -0.4,-0.6 0,-1.3 0.6,-1.5 0.6,-0.3 1.3,0 1.6,0.6 l 25.5,60.8 18.5,-43.8 c 0.2,-0.6 0.8,-0.8 1.2,-0.8 0.5,-0.1 1,0.3 1.3,0.8 l 18.4,43.8 25.6,-60.8 c 0.4,-0.6 0.9,-0.8 1.6,-0.6 0.7,0.2 0.9,0.9 0.7,1.5 l -26.6,63.4 c -0.2,0.4 -0.4,0.8 -1.1,0.8 -0.7,0 -0.9,-0.2 -1.2,-0.8 l -18.7,-44.2 z"
         id="path3167"
         inkscape:connector-curvature="0"
         style="fill:#1e477a" /><path
         d="m 609.2,459.3 h -32.9 l -6.3,16.9 c -0.1,0.5 -0.6,0.8 -1,0.8 -0.1,0 -0.3,-0.1 -0.5,-0.1 -0.6,-0.3 -0.8,-0.9 -0.6,-1.6 L 591.6,412 c 0.2,-0.6 0.7,-0.8 1.2,-0.8 0.5,0 0.9,0.3 1.2,0.8 l 23.7,63.3 c 0.3,0.7 -0.1,1.3 -0.7,1.6 -0.2,0 -0.3,0.1 -0.4,0.1 -0.5,0 -0.9,-0.4 -1.2,-0.8 l -6.2,-16.9 z m -32.1,-2.5 h 31.1 l -15.5,-41.2 -15.6,41.2 z"
         id="path3169"
         inkscape:connector-curvature="0"
         style="fill:#1e477a" /><path
         d="m 633,412.6 c 0,-0.6 0.5,-1.2 1.2,-1.2 0.6,0 1.2,0.7 1.2,1.2 V 455 l 43.2,-43.2 c 0.6,-0.5 1.2,-0.5 1.7,0 0.5,0.5 0.5,1.2 0,1.7 l -26.9,26.9 27,34.7 c 0.5,0.7 0.4,1.3 -0.1,1.7 -0.3,0.3 -0.5,0.4 -0.8,0.4 -0.4,0 -0.7,-0.3 -0.9,-0.5 L 651.7,442 635.6,458.2 c -0.1,0.1 -0.1,0.2 -0.2,0.2 v 17.5 c 0,0.7 -0.7,1.2 -1.2,1.2 -0.8,0 -1.2,-0.6 -1.2,-1.2 v -63.3 z"
         id="path3171"
         inkscape:connector-curvature="0"
         style="fill:#1e477a" /><path
         d="m 701.6,477.2 h -0.2 c -0.8,0 -1.1,-0.6 -1.1,-1.2 v -63.4 c 0,-0.6 0.4,-1.1 1.1,-1.2 h 0.1 0.1 34.9 c 0.7,0 1.1,0.6 1.1,1.2 0,0.7 -0.5,1.1 -1.1,1.1 H 702.6 V 443 h 29.8 c 0.7,0 1.1,0.6 1.1,1.1 0,0.8 -0.5,1.2 -1.1,1.2 h -29.8 v 29.5 h 33.9 c 0.7,0 1.1,0.5 1.1,1.1 0,0.7 -0.5,1.2 -1.1,1.2 h -34.9 l 0,0.1 z"
         id="path3173"
         inkscape:connector-curvature="0"
         style="fill:#1e477a" /><path
         d="m 784.4,412.5 c 0,-0.7 0.5,-1.2 1.2,-1.2 0.7,0 1.1,0.6 1.1,1.2 v 38.2 c 0,13.4 10.7,23.9 24,24.1 13.2,-0.2 23.9,-10.7 24,-24.1 v -38.2 c 0,-0.7 0.6,-1.2 1.2,-1.2 0.6,0 1.2,0.6 1.2,1.2 v 38.2 c 0,14.7 -12,26.5 -26.5,26.5 -14.6,0 -26.4,-11.8 -26.4,-26.5 v -38.2 z"
         id="path3175"
         inkscape:connector-curvature="0"
         style="fill:#1e477a" /><path
         d="m 861,412.5 c 0,-0.7 0.6,-1.2 1.2,-1.2 h 0.2 19.1 c 10.1,0 18.4,8.2 18.4,18.4 0,10.2 -8.3,18.3 -18.4,18.3 h -18.2 v 28.1 c 0,0.7 -0.5,1.2 -1.1,1.2 -0.7,0 -1.2,-0.6 -1.2,-1.2 v -63.6 z m 20.5,32.9 c 8.8,0 15.9,-7 15.9,-15.8 0,-8.8 -7.2,-16 -15.9,-16 h -18.2 v 31.8 h 18.2 z"
         id="path3177"
         inkscape:connector-curvature="0"
         style="fill:#1e477a" /></g><g
       id="g3179"><path
         d="m 426.2,595.6 c 0,-5.9 -2.7,-10.1 -6.1,-13.1 -3.3,-2.9 -8.1,-6.3 -21.5,-6.3 h -14.9 v 36.1 c 0,0.9 -0.6,1.6 -1.5,1.6 -0.8,0 -1.6,-0.7 -1.6,-1.6 v -81.7 c 0,-0.8 0.7,-1.6 1.6,-1.6 h 0.1 0.1 24.6 c 13,0 23.6,10.5 23.6,23.6 0,10.8 -7.2,19.8 -17,22.5 1.5,0.6 2.9,1.3 4.4,2.2 5.3,3 11,8.8 11,18.2 0,6.9 1,10.7 1.8,12.4 0.8,1.6 1.6,1.5 1.9,1.5 1,-0.1 1.8,0.5 1.9,1.2 0.2,1.6 -1.1,1.9 -2.1,1.9 -1.2,0 -3.2,-0.8 -4.4,-3.3 -1,-2.3 -1.9,-6.3 -1.9,-13.6 z m -19,-22.5 h 0.2 c 11.1,-0.1 20.2,-9 20.2,-20.4 0,-11.4 -9.2,-20.6 -20.5,-20.6 h -23.4 v 41 h 23.5 z"
         id="path3181"
         inkscape:connector-curvature="0"
         style="fill:#1e477a" /><path
         d="m 459.9,613.9 h -0.2 c -1,0 -1.5,-0.7 -1.5,-1.6 v -81.7 c 0,-0.7 0.5,-1.5 1.5,-1.6 h 0.1 0.1 45 c 0.8,0 1.5,0.7 1.5,1.6 0,0.8 -0.6,1.5 -1.5,1.5 h -43.6 v 37.8 h 38.4 c 0.8,0 1.5,0.7 1.5,1.5 0,1 -0.6,1.6 -1.5,1.6 h -38.4 v 37.9 h 43.6 c 0.8,0 1.5,0.6 1.5,1.5 0,0.9 -0.6,1.6 -1.5,1.6 H 460 459.9 z"
         id="path3183"
         inkscape:connector-curvature="0"
         style="fill:#1e477a" /><path
         d="m 559.4,613.5 c -0.2,-0.1 -0.4,-0.4 -0.5,-0.6 l -34.3,-81.6 c -0.4,-0.7 0,-1.7 0.7,-1.9 0.8,-0.4 1.7,0 2.2,0.7 l 32.8,78.2 33,-78.2 c 0.2,-0.7 1.2,-1.1 1.9,-0.7 0.8,0.2 1.1,1.2 0.8,1.9 l -34.3,81.6 c 0,0.1 -0.1,0.1 -0.1,0.1 -0.1,0.4 -0.4,0.6 -0.7,0.7 h -0.1 c -0.1,0.1 -0.4,0.1 -0.5,0.1 h -0.1 -0.2 c -0.1,-0.1 -0.2,-0.1 -0.2,-0.1 -0.1,0.1 -0.3,0 -0.4,-0.2 z"
         id="path3185"
         inkscape:connector-curvature="0"
         style="fill:#1e477a" /><path
         d="m 615.8,530.6 c 0,-1 0.6,-1.6 1.6,-1.6 0.7,0 1.5,0.6 1.5,1.6 v 81.7 c 0,1 -0.7,1.6 -1.5,1.6 -1,0 -1.6,-0.6 -1.6,-1.6 v -81.7 z"
         id="path3187"
         inkscape:connector-curvature="0"
         style="fill:#1e477a" /><path
         d="m 681.2,613.5 c -0.2,-0.1 -0.4,-0.4 -0.5,-0.6 l -34.3,-81.6 c -0.4,-0.7 0,-1.7 0.7,-1.9 0.8,-0.4 1.7,0 2.2,0.7 l 32.8,78.2 33,-78.2 c 0.2,-0.7 1.2,-1.1 1.9,-0.7 0.8,0.2 1.1,1.2 0.8,1.9 l -34.3,81.6 c 0,0.1 -0.1,0.1 -0.1,0.1 -0.1,0.4 -0.4,0.6 -0.7,0.7 h -0.1 c -0.1,0.1 -0.4,0.1 -0.5,0.1 h -0.1 -0.2 c -0.1,-0.1 -0.2,-0.1 -0.2,-0.1 -0.1,0.1 -0.3,0 -0.4,-0.2 z"
         id="path3189"
         inkscape:connector-curvature="0"
         style="fill:#1e477a" /><path
         d="m 740.8,613.9 h -0.2 c -1,0 -1.5,-0.7 -1.5,-1.6 v -81.7 c 0,-0.7 0.5,-1.5 1.5,-1.6 h 0.1 0.1 45 c 0.8,0 1.5,0.7 1.5,1.6 0,0.8 -0.6,1.5 -1.5,1.5 h -43.6 v 37.8 h 38.4 c 0.8,0 1.5,0.7 1.5,1.5 0,1 -0.6,1.6 -1.5,1.6 h -38.4 v 37.9 h 43.6 c 0.8,0 1.5,0.6 1.5,1.5 0,0.9 -0.6,1.6 -1.5,1.6 H 741 740.8 z"
         id="path3191"
         inkscape:connector-curvature="0"
         style="fill:#1e477a" /><path
         d="m 811,530.6 c 0,-0.8 0.6,-1.6 1.6,-1.6 h 0.1 16.1 c 23.5,0 42.4,19 42.4,42.3 0,23.5 -18.9,42.5 -42.4,42.5 h -16.1 -0.1 c -1,0 -1.6,-0.7 -1.6,-1.6 v -81.6 z m 17.8,80.3 c 21.8,-0.2 39.3,-17.7 39.4,-39.5 -0.1,-21.6 -17.6,-39.3 -39.4,-39.3 H 814 v 78.8 h 14.8 z"
         id="path3193"
         inkscape:connector-curvature="0"
         style="fill:#1e477a" /><path
         d="m 896.8,530.6 c 0,-1 0.6,-1.6 1.6,-1.6 0.7,0 1.5,0.6 1.5,1.6 v 63 c 0,0.8 -0.7,1.5 -1.5,1.5 -1,0 -1.6,-0.6 -1.6,-1.5 v -63 z m 0,78.8 c 0,-0.7 0.6,-1.5 1.6,-1.5 0.7,0 1.5,0.7 1.5,1.5 v 2.9 c 0,1 -0.7,1.6 -1.5,1.6 -1,0 -1.6,-0.6 -1.6,-1.6 v -2.9 z"
         id="path3195"
         inkscape:connector-curvature="0"
         style="fill:#1e477a" /></g><line
       stroke-miterlimit="10"
       x1="381"
       y1="274.5"
       x2="900"
       y2="274.5"
       id="line3197"
       style="fill:none;stroke:#00b9f1;stroke-miterlimit:10;stroke-dasharray:10" /><line
       stroke-miterlimit="10"
       x1="381"
       y1="386.5"
       x2="900"
       y2="386.5"
       id="line3199"
       style="fill:none;stroke:#00b9f1;stroke-miterlimit:10;stroke-dasharray:10" /><line
       stroke-miterlimit="10"
       x1="381"
       y1="504.5"
       x2="900"
       y2="504.5"
       id="line3201"
       style="fill:none;stroke:#00b9f1;stroke-miterlimit:10;stroke-dasharray:10" /></g></svg>